Open Sans-Bold.ufo
<glyph name="slash" format="1">
  <advance width="846"/>
  <unicode hex="002F"/>
  <note>
    slash
  </note>
  <outline>
    <contour>
      <point x="14" y="-14" type="line"/>
      <point x="287" y="-14" type="line"/>
      <point x="832" y="1477" type="line"/>
      <point x="558" y="1477" type="line"/>
    </contour>
  </outline>
</glyph>
<glyph name="C" format="1">
  <advance width="1305"/>
  <unicode hex="0043"/>
  <outline>
    <contour>
      <point x="824" y="1229" type="curve" smooth="yes"/>
      <point x="946" y="1229"/>
      <point x="1052" y="1193"/>
      <point x="1160" y="1142" type="curve"/>
      <point x="1257" y="1387" type="line"/>
      <point x="1122" y="1451"/>
      <point x="978" y="1483"/>
      <point x="825" y="1483" type="curve" smooth="yes"/>
      <point x="681" y="1483"/>
      <point x="556" y="1453"/>
      <point x="450" y="1391" type="curve" smooth="yes"/>
      <point x="237" y="1266"/>
      <point x="119" y="1031"/>
      <point x="119" y="729" type="curve" smooth="yes"/>
      <point x="119" y="248"/>
      <point x="365" y="-20"/>
      <point x="797" y="-20" type="curve" smooth="yes"/>
      <point x="948" y="-20"/>
      <point x="1081" y="4"/>
      <point x="1195" y="52" type="curve"/>
      <point x="1195" y="313" type="line"/>
      <point x="1078" y="268"/>
      <point x="961" y="234"/>
      <point x="834" y="234" type="curve" smooth="yes"/>
      <point x="737" y="234"/>
      <point x="658" y="258"/>
      <point x="596" y="306" type="curve" smooth="yes"/>
      <point x="495" y="381"/>
      <point x="437" y="517"/>
      <point x="437" y="727" type="curve" smooth="yes"/>
      <point x="437" y="1040"/>
      <point x="582" y="1229"/>
    </contour>
    <contour>
      <point x="664" y="0" type="move" name="bottom"/>
    </contour>
    <contour>
      <point x="664" y="1462" type="move" name="top"/>
    </contour>
  </outline>
</glyph>
<glyph name="E" format="1">
  <advance width="1147"/>
  <unicode hex="0045"/>
  <outline>
    <contour>
      <point x="1031" y="254" type="line"/>
      <point x="491" y="254" type="line"/>
      <point x="491" y="635" type="line"/>
      <point x="995" y="635" type="line"/>
      <point x="995" y="885" type="line"/>
      <point x="491" y="885" type="line"/>
      <point x="491" y="1212" type="line"/>
      <point x="1031" y="1212" type="line"/>
      <point x="1031" y="1462" type="line"/>
      <point x="184" y="1462" type="line"/>
      <point x="184" y="0" type="line"/>
      <point x="1031" y="0" type="line"/>
    </contour>
    <contour>
      <point x="574" y="0" type="move" name="bottom"/>
    </contour>
    <contour>
      <point x="1025" y="10" type="move" name="ogonek"/>
    </contour>
    <contour>
      <point x="574" y="1462" type="move" name="top"/>
    </contour>
    <contour>
      <point x="31" y="1462" type="move" name="topleft"/>
    </contour>
  </outline>
</glyph>
<glyph name="H" format="1">
  <advance width="1567"/>
  <unicode hex="0048"/>
  <outline>
    <contour>
      <point x="1379" y="1462" type="line"/>
      <point x="1070" y="1462" type="line"/>
      <point x="1070" y="888" type="line"/>
      <point x="492" y="888" type="line"/>
      <point x="492" y="1462" type="line"/>
      <point x="184" y="1462" type="line"/>
      <point x="184" y="0" type="line"/>
      <point x="492" y="0" type="line"/>
      <point x="492" y="633" type="line"/>
      <point x="1070" y="633" type="line"/>
      <point x="1070" y="0" type="line"/>
      <point x="1379" y="0" type="line"/>
    </contour>
    <contour>
      <point x="782" y="0" type="move" name="bottom"/>
    </contour>
    <contour>
      <point x="782" y="731" type="move" name="center"/>
    </contour>
    <contour>
      <point x="782" y="1462" type="move" name="top"/>
    </contour>
    <contour>
      <point x="31" y="1462" type="move" name="topleft"/>
    </contour>
  </outline>
</glyph>
<glyph name="O" format="1">
  <advance width="1630"/>
  <unicode hex="004F"/>
  <outline>
    <contour>
      <point x="1507" y="733" type="curve" smooth="yes"/>
      <point x="1507" y="1218"/>
      <point x="1263" y="1485"/>
      <point x="815" y="1485" type="curve" smooth="yes"/>
      <point x="369" y="1485"/>
      <point x="119" y="1215"/>
      <point x="119" y="735" type="curve" smooth="yes"/>
      <point x="119" y="250"/>
      <point x="370" y="-20"/>
      <point x="813" y="-20" type="curve" smooth="yes"/>
      <point x="1261" y="-20"/>
      <point x="1507" y="249"/>
    </contour>
    <contour>
      <point x="444" y="733" type="curve" smooth="yes"/>
      <point x="444" y="1058"/>
      <point x="572" y="1229"/>
      <point x="815" y="1229" type="curve" smooth="yes"/>
      <point x="1056" y="1229"/>
      <point x="1182" y="1064"/>
      <point x="1182" y="733" type="curve" smooth="yes"/>
      <point x="1182" y="402"/>
      <point x="1059" y="239"/>
      <point x="813" y="239" type="curve" smooth="yes"/>
      <point x="570" y="239"/>
      <point x="444" y="409"/>
    </contour>
    <contour>
      <point x="814" y="0" type="move" name="bottom"/>
    </contour>
    <contour>
      <point x="814" y="731" type="move" name="center"/>
    </contour>
    <contour>
      <point x="1459" y="10" type="move" name="ogonek"/>
    </contour>
    <contour>
      <point x="814" y="1462" type="move" name="top"/>
    </contour>
    <contour>
      <point x="182" y="1462" type="move" name="topleft"/>
    </contour>
    <contour>
      <point x="1600" y="1462" type="move" name="topright"/>
    </contour>
  </outline>
</glyph>
<glyph name="U" format="1">
  <advance width="1548"/>
  <unicode hex="0055"/>
  <outline>
    <contour>
      <point x="770" y="-20" type="curve" smooth="yes"/>
      <point x="1160" y="-20"/>
      <point x="1377" y="193"/>
      <point x="1377" y="562" type="curve" smooth="yes"/>
      <point x="1377" y="1462" type="line"/>
      <point x="1070" y="1462" type="line"/>
      <point x="1070" y="576" type="line" smooth="yes"/>
      <point x="1070" y="346"/>
      <point x="974" y="237"/>
      <point x="778" y="237" type="curve" smooth="yes"/>
      <point x="586" y="237"/>
      <point x="483" y="348"/>
      <point x="483" y="578" type="curve" smooth="yes"/>
      <point x="483" y="1462" type="line"/>
      <point x="174" y="1462" type="line"/>
      <point x="174" y="557" type="line" smooth="yes"/>
      <point x="174" y="187"/>
      <point x="389" y="-20"/>
    </contour>
    <contour>
      <point x="776" y="0" type="move" name="bottom"/>
    </contour>
    <contour>
      <point x="1386" y="10" type="move" name="ogonek"/>
    </contour>
    <contour>
      <point x="776" y="1462" type="move" name="top"/>
    </contour>
    <contour>
      <point x="1519" y="1462" type="move" name="topright"/>
    </contour>
  </outline>
</glyph>
<glyph name="backslash" format="1">
  <advance width="846"/>
  <unicode hex="005C"/>
  <note>
    backslash
  </note>
  <outline>
    <contour>
      <point x="557" y="-14" type="line"/>
      <point x="830.1" y="-14" type="line"/>
      <point x="284.5" y="1476.7" type="line"/>
      <point x="11.7" y="1476.7" type="line"/>
    </contour>
  </outline>
</glyph>
<glyph name="a" format="1">
  <advance width="1237"/>
  <unicode hex="0061"/>
  <outline>
    <contour>
      <point x="1081" y="0" type="line"/>
      <point x="1081" y="737" type="line" smooth="yes"/>
      <point x="1081" y="997"/>
      <point x="930" y="1139"/>
      <point x="654" y="1139" type="curve" smooth="yes"/>
      <point x="478" y="1139"/>
      <point x="326" y="1107"/>
      <point x="198" y="1042" type="curve"/>
      <point x="288" y="836" type="line"/>
      <point x="410" y="892"/>
      <point x="514" y="920"/>
      <point x="603" y="920" type="curve" smooth="yes"/>
      <point x="723" y="920"/>
      <point x="779" y="855"/>
      <point x="779" y="728" type="curve" smooth="yes"/>
      <point x="779" y="695" type="line"/>
      <point x="585" y="689" type="line" smooth="yes"/>
      <point x="261" y="679"/>
      <point x="86" y="561"/>
      <point x="86" y="329" type="curve" smooth="yes"/>
      <point x="86" y="109"/>
      <point x="215" y="-20"/>
      <point x="428" y="-20" type="curve" smooth="yes"/>
      <point x="597" y="-20"/>
      <point x="695" y="23"/>
      <point x="801" y="157" type="curve"/>
      <point x="809" y="157" type="line"/>
      <point x="869" y="0" type="line"/>
    </contour>
    <contour>
      <point x="546" y="200" type="curve" smooth="yes"/>
      <point x="449" y="200"/>
      <point x="397" y="248"/>
      <point x="397" y="337" type="curve" smooth="yes"/>
      <point x="397" y="452"/>
      <point x="477" y="507"/>
      <point x="659" y="515" type="curve" smooth="yes"/>
      <point x="779" y="520" type="line"/>
      <point x="779" y="426" type="line" smooth="yes"/>
      <point x="779" y="288"/>
      <point x="682" y="200"/>
    </contour>
    <contour>
      <point x="615" y="0" type="move" name="bottom"/>
    </contour>
    <contour>
      <point x="1053" y="10" type="move" name="ogonek"/>
    </contour>
    <contour>
      <point x="615" y="1119" type="move" name="top"/>
    </contour>
  </outline>
</glyph>
<glyph name="e" format="1">
  <advance width="1210"/>
  <unicode hex="0065"/>
  <outline>
    <contour>
      <point x="660" y="-20" type="curve" smooth="yes"/>
      <point x="824" y="-20"/>
      <point x="936" y="-1"/>
      <point x="1059" y="59" type="curve"/>
      <point x="1059" y="282" type="line"/>
      <point x="921" y="221"/>
      <point x="826" y="202"/>
      <point x="693" y="202" type="curve" smooth="yes"/>
      <point x="510" y="202"/>
      <point x="404" y="303"/>
      <point x="400" y="482" type="curve"/>
      <point x="1124" y="482" type="line"/>
      <point x="1124" y="627" type="line" smooth="yes"/>
      <point x="1124" y="954"/>
      <point x="941" y="1139"/>
      <point x="625" y="1139" type="curve" smooth="yes"/>
      <point x="287" y="1139"/>
      <point x="92" y="924"/>
      <point x="92" y="552" type="curve" smooth="yes"/>
      <point x="92" y="187"/>
      <point x="301" y="-20"/>
    </contour>
    <contour>
      <point x="407" y="680" type="line"/>
      <point x="421" y="845"/>
      <point x="508" y="927"/>
      <point x="635" y="927" type="curve" smooth="yes"/>
      <point x="763" y="927"/>
      <point x="842" y="832"/>
      <point x="844" y="680" type="curve"/>
    </contour>
    <contour>
      <point x="608" y="0" type="move" name="bottom"/>
    </contour>
    <contour>
      <point x="1028" y="21" type="move" name="ogonek"/>
    </contour>
    <contour>
      <point x="608" y="1119" type="move" name="top"/>
    </contour>
  </outline>
</glyph>
<glyph name="n" format="1">
  <advance width="1346"/>
  <unicode hex="006E"/>
  <outline>
    <contour>
      <point x="160" y="0" type="line"/>
      <point x="463" y="0" type="line"/>
      <point x="463" y="527" type="line" smooth="yes"/>
      <point x="463" y="670"/>
      <point x="484" y="766"/>
      <point x="528" y="823" type="curve" smooth="yes"/>
      <point x="567" y="875"/>
      <point x="626" y="898"/>
      <point x="707" y="898" type="curve" smooth="yes"/>
      <point x="832" y="898"/>
      <point x="888" y="815"/>
      <point x="888" y="644" type="curve" smooth="yes"/>
      <point x="888" y="0" type="line"/>
      <point x="1191" y="0" type="line"/>
      <point x="1191" y="729" type="line" smooth="yes"/>
      <point x="1191" y="993"/>
      <point x="1052" y="1139"/>
      <point x="802" y="1139" type="curve" smooth="yes"/>
      <point x="641" y="1139"/>
      <point x="518" y="1085"/>
      <point x="450" y="976" type="curve"/>
      <point x="432" y="976" type="line"/>
      <point x="392" y="1119" type="line"/>
      <point x="160" y="1119" type="line"/>
    </contour>
    <contour>
      <point x="672" y="0" type="move" name="bottom"/>
    </contour>
    <contour>
      <point x="696" y="1119" type="move" name="top"/>
    </contour>
  </outline>
</glyph>
<glyph name="bar" format="1">
  <advance width="1128"/>
  <unicode hex="007C"/>
  <note>
    bar
  </note>
  <outline>
    <contour>
      <point x="455" y="-464" type="line"/>
      <point x="670" y="-464" type="line"/>
      <point x="670" y="1558" type="line"/>
      <point x="455" y="1558" type="line"/>
    </contour>
  </outline>
</glyph>
<glyph name="micro" format="1">
  <advance width="1352"/>
  <unicode hex="00B5"/>
  <note>
    mu
  </note>
  <outline>
    <contour>
      <point x="160" y="-492" type="line"/>
      <point x="463" y="-492" type="line"/>
      <point x="463" y="-144" type="line" smooth="yes"/>
      <point x="463" y="-60"/>
      <point x="460" y="11"/>
      <point x="455" y="72" type="curve"/>
      <point x="453" y="72" type="line"/>
      <point x="500" y="9"/>
      <point x="554" y="-20"/>
      <point x="646" y="-20" type="curve" smooth="yes"/>
      <point x="754" y="-20"/>
      <point x="854" y="39"/>
      <point x="905" y="151" type="curve"/>
      <point x="918" y="151" type="line"/>
      <point x="961" y="0" type="line"/>
      <point x="1191" y="0" type="line"/>
      <point x="1191" y="1119" type="line"/>
      <point x="887" y="1119" type="line"/>
      <point x="887" y="592" type="line" smooth="yes"/>
      <point x="887" y="440"/>
      <point x="861" y="339"/>
      <point x="806" y="282" type="curve" smooth="yes"/>
      <point x="769" y="242"/>
      <point x="717" y="223"/>
      <point x="650" y="223" type="curve" smooth="yes"/>
      <point x="519" y="223"/>
      <point x="463" y="305"/>
      <point x="463" y="477" type="curve" smooth="yes"/>
      <point x="463" y="1119" type="line"/>
      <point x="160" y="1119" type="line"/>
    </contour>
  </outline>
</glyph>
<glyph name="paragraph" format="1">
  <advance width="1341"/>
  <unicode hex="00B6"/>
  <note>
    paragraph
  </note>
  <outline>
    <contour>
      <point x="664" y="-260" type="line"/>
      <point x="828" y="-260" type="line"/>
      <point x="828" y="1367" type="line"/>
      <point x="1006" y="1367" type="line"/>
      <point x="1006" y="-260" type="line"/>
      <point x="1170" y="-260" type="line"/>
      <point x="1170" y="1556" type="line"/>
      <point x="564" y="1556" type="line" smooth="yes"/>
      <point x="251" y="1556"/>
      <point x="113" y="1385"/>
      <point x="113" y="1042" type="curve" smooth="yes"/>
      <point x="113" y="707"/>
      <point x="245" y="541"/>
      <point x="533" y="541" type="curve" smooth="yes"/>
      <point x="582" y="541"/>
      <point x="626" y="547"/>
      <point x="664" y="559" type="curve"/>
    </contour>
  </outline>
</glyph>
<glyph name="ae" format="1">
  <advance width="1878"/>
  <unicode hex="00E6"/>
  <note>
    ae
  </note>
  <outline>
    <contour>
      <point x="460" y="-20" type="curve" smooth="yes"/>
      <point x="659" y="-20"/>
      <point x="772" y="35"/>
      <point x="896" y="190" type="curve"/>
      <point x="998" y="38"/>
      <point x="1127" y="-20"/>
      <point x="1339" y="-20" type="curve" smooth="yes"/>
      <point x="1466" y="-20"/>
      <point x="1589" y="0"/>
      <point x="1706" y="59" type="curve"/>
      <point x="1706" y="282" type="line"/>
      <point x="1588" y="226"/>
      <point x="1469" y="202"/>
      <point x="1371" y="202" type="curve" smooth="yes"/>
      <point x="1165" y="202"/>
      <point x="1072" y="304"/>
      <point x="1067" y="482" type="curve"/>
      <point x="1769" y="482" type="line"/>
      <point x="1769" y="626" type="line" smooth="yes"/>
      <point x="1769" y="948"/>
      <point x="1599" y="1139"/>
      <point x="1295" y="1139" type="curve" smooth="yes"/>
      <point x="1165" y="1139"/>
      <point x="1044" y="1100"/>
      <point x="956" y="1010" type="curve"/>
      <point x="875" y="1098"/>
      <point x="770" y="1139"/>
      <point x="615" y="1139" type="curve" smooth="yes"/>
      <point x="474" y="1139"/>
      <point x="326" y="1109"/>
      <point x="201" y="1044" type="curve"/>
      <point x="289" y="839" type="line"/>
      <point x="403" y="893"/>
      <point x="511" y="920"/>
      <point x="594" y="920" type="curve" smooth="yes"/>
      <point x="719" y="920"/>
      <point x="773" y="859"/>
      <point x="773" y="729" type="curve" smooth="yes"/>
      <point x="773" y="695" type="line"/>
      <point x="585" y="689" type="line" smooth="yes"/>
      <point x="255" y="678"/>
      <point x="86" y="561"/>
      <point x="86" y="325" type="curve" smooth="yes"/>
      <point x="86" y="118"/>
      <point x="216" y="-20"/>
    </contour>
    <contour>
      <point x="545" y="200" type="curve" smooth="yes"/>
      <point x="447" y="200"/>
      <point x="397" y="247"/>
      <point x="397" y="339" type="curve" smooth="yes"/>
      <point x="397" y="453"/>
      <point x="474" y="507"/>
      <point x="658" y="515" type="curve" smooth="yes"/>
      <point x="773" y="520" type="line"/>
      <point x="773" y="426" type="line" smooth="yes"/>
      <point x="773" y="288"/>
      <point x="678" y="200"/>
    </contour>
    <contour>
      <point x="1073" y="680" type="line"/>
      <point x="1085" y="845"/>
      <point x="1163" y="927"/>
      <point x="1285" y="927" type="curve" smooth="yes"/>
      <point x="1415" y="927"/>
      <point x="1490" y="831"/>
      <point x="1492" y="680" type="curve"/>
    </contour>
    <contour>
      <point x="935" y="0" type="move" name="bottom"/>
    </contour>
    <contour>
      <point x="935" y="1119" type="move" name="top"/>
    </contour>
  </outline>
</glyph>
<glyph name="divide" format="1">
  <advance width="1169"/>
  <unicode hex="00F7"/>
  <note>
    divide
  </note>
  <outline>
    <contour>
      <point x="88" y="616" type="line"/>
      <point x="1081" y="616" type="line"/>
      <point x="1081" y="828" type="line"/>
      <point x="88" y="828" type="line"/>
    </contour>
    <contour>
      <point x="584" y="195" type="curve" smooth="yes"/>
      <point x="663" y="195"/>
      <point x="718" y="248"/>
      <point x="718" y="344" type="curve" smooth="yes"/>
      <point x="718" y="441"/>
      <point x="670" y="492"/>
      <point x="584" y="492" type="curve" smooth="yes"/>
      <point x="496" y="492"/>
      <point x="451" y="439"/>
      <point x="451" y="344" type="curve" smooth="yes"/>
      <point x="451" y="246"/>
      <point x="504" y="195"/>
    </contour>
    <contour>
      <point x="584" y="952" type="curve" smooth="yes"/>
      <point x="663" y="952"/>
      <point x="718" y="1005"/>
      <point x="718" y="1101" type="curve" smooth="yes"/>
      <point x="718" y="1198"/>
      <point x="670" y="1250"/>
      <point x="584" y="1250" type="curve" smooth="yes"/>
      <point x="496" y="1250"/>
      <point x="451" y="1197"/>
      <point x="451" y="1101" type="curve" smooth="yes"/>
      <point x="451" y="1004"/>
      <point x="504" y="952"/>
    </contour>
  </outline>
</glyph>
<glyph name="oslash" format="1">
  <advance width="1268"/>
  <unicode hex="00F8"/>
  <note>
    oslash
  </note>
  <outline>
    <contour>
      <point x="317" y="-92" type="line"/>
      <point x="402" y="33" type="line"/>
      <point x="474" y="-2"/>
      <point x="557" y="-20"/>
      <point x="649" y="-20" type="curve" smooth="yes"/>
      <point x="1004" y="-20"/>
      <point x="1212" y="194"/>
      <point x="1212" y="562" type="curve" smooth="yes"/>
      <point x="1212" y="746"/>
      <point x="1158" y="889"/>
      <point x="1050" y="992" type="curve"/>
      <point x="1128" y="1106" type="line"/>
      <point x="988" y="1196" type="line"/>
      <point x="910" y="1081" type="line"/>
      <point x="834" y="1120"/>
      <point x="749" y="1139"/>
      <point x="655" y="1139" type="curve" smooth="yes"/>
      <point x="300" y="1139"/>
      <point x="92" y="927"/>
      <point x="92" y="562" type="curve" smooth="yes"/>
      <point x="92" y="373"/>
      <point x="148" y="226"/>
      <point x="260" y="122" type="curve"/>
      <point x="177" y="0" type="line"/>
    </contour>
    <contour>
      <point x="653" y="196" type="curve" smooth="yes"/>
      <point x="601" y="196"/>
      <point x="560" y="206"/>
      <point x="529" y="226" type="curve"/>
      <point x="890" y="746" type="line"/>
      <point x="909" y="701"/>
      <point x="918" y="640"/>
      <point x="918" y="562" type="curve" smooth="yes"/>
      <point x="918" y="310"/>
      <point x="832" y="196"/>
    </contour>
    <contour>
      <point x="417" y="362" type="line"/>
      <point x="396" y="409"/>
      <point x="386" y="476"/>
      <point x="386" y="562" type="curve" smooth="yes"/>
      <point x="386" y="807"/>
      <point x="473" y="924"/>
      <point x="651" y="924" type="curve" smooth="yes"/>
      <point x="703" y="924"/>
      <point x="746" y="912"/>
      <point x="783" y="887" type="curve"/>
    </contour>
    <contour>
      <point x="653" y="1119" type="move" name="top"/>
    </contour>
  </outline>
</glyph>
<glyph name="thorn" format="1">
  <advance width="1296"/>
  <unicode hex="00FE"/>
  <note>
    thorn
  </note>
  <outline>
    <contour>
      <point x="160" y="-492" type="line"/>
      <point x="463" y="-492" type="line"/>
      <point x="463" y="-54" type="line" smooth="yes"/>
      <point x="463" y="-14"/>
      <point x="459" y="45"/>
      <point x="452" y="127" type="curve"/>
      <point x="463" y="127" type="line"/>
      <point x="540" y="29"/>
      <point x="644" y="-20"/>
      <point x="774" y="-20" type="curve" smooth="yes"/>
      <point x="1038" y="-20"/>
      <point x="1201" y="201"/>
      <point x="1201" y="561" type="curve" smooth="yes"/>
      <point x="1201" y="929"/>
      <point x="1045" y="1139"/>
      <point x="785" y="1139" type="curve" smooth="yes"/>
      <point x="641" y="1139"/>
      <point x="526" y="1077"/>
      <point x="463" y="966" type="curve"/>
      <point x="449" y="966" type="line"/>
      <point x="458" y="1046"/>
      <point x="463" y="1124"/>
      <point x="463" y="1198" type="curve" smooth="yes"/>
      <point x="463" y="1556" type="line"/>
      <point x="160" y="1556" type="line"/>
    </contour>
    <contour>
      <point x="686" y="227" type="curve" smooth="yes"/>
      <point x="531" y="227"/>
      <point x="463" y="323"/>
      <point x="463" y="562" type="curve" smooth="yes"/>
      <point x="463" y="588" type="line" smooth="yes"/>
      <point x="463" y="802"/>
      <point x="526" y="898"/>
      <point x="683" y="898" type="curve" smooth="yes"/>
      <point x="830" y="898"/>
      <point x="891" y="784"/>
      <point x="891" y="563" type="curve" smooth="yes"/>
      <point x="891" y="346"/>
      <point x="828" y="227"/>
    </contour>
    <contour>
      <point x="655" y="0" type="move" name="bottom"/>
    </contour>
    <contour>
      <point x="655" y="1119" type="move" name="top"/>
    </contour>
  </outline>
</glyph>
<glyph name="dcroat" format="1">
  <advance width="1329"/>
  <unicode hex="0111"/>
  <note>
    dcroat
  </note>
  <outline>
    <contour>
      <point x="500" y="-20" type="curve" smooth="yes"/>
      <point x="633" y="-20"/>
      <point x="736" y="36"/>
      <point x="809" y="150" type="curve"/>
      <point x="822" y="150" type="line"/>
      <point x="891" y="0" type="line"/>
      <point x="1134" y="0" type="line"/>
      <point x="1134" y="1199" type="line"/>
      <point x="1289" y="1199" type="line"/>
      <point x="1289" y="1392" type="line"/>
      <point x="1134" y="1392" type="line"/>
      <point x="1134" y="1556" type="line"/>
      <point x="829" y="1556" type="line"/>
      <point x="829" y="1392" type="line"/>
      <point x="525" y="1392" type="line"/>
      <point x="525" y="1199" type="line"/>
      <point x="829" y="1199" type="line"/>
      <point x="829" y="1159" type="line" smooth="yes"/>
      <point x="829" y="1067"/>
      <point x="840" y="967"/>
      <point x="852" y="898" type="curve"/>
      <point x="845" y="898" type="line"/>
      <point x="768" y="1016"/>
      <point x="664" y="1069"/>
      <point x="526" y="1069" type="curve" smooth="yes"/>
      <point x="249" y="1069"/>
      <point x="92" y="870"/>
      <point x="92" y="518" type="curve" smooth="yes"/>
      <point x="92" y="182"/>
      <point x="244" y="-20"/>
    </contour>
    <contour>
      <point x="638" y="223" type="curve" smooth="yes"/>
      <point x="503" y="223"/>
      <point x="425" y="328"/>
      <point x="425" y="516" type="curve" smooth="yes"/>
      <point x="425" y="717"/>
      <point x="495" y="821"/>
      <point x="633" y="821" type="curve" smooth="yes"/>
      <point x="776" y="821"/>
      <point x="852" y="724"/>
      <point x="852" y="522" type="curve" smooth="yes"/>
      <point x="852" y="499" type="line" smooth="yes"/>
      <point x="849" y="308"/>
      <point x="790" y="223"/>
    </contour>
  </outline>
</glyph>
<glyph name="hbar" format="1">
  <advance width="1346"/>
  <unicode hex="0127"/>
  <note>
    hbar
  </note>
  <outline>
    <contour>
      <point x="160" y="0" type="line"/>
      <point x="463" y="0" type="line"/>
      <point x="463" y="447" type="line" smooth="yes"/>
      <point x="463" y="607"/>
      <point x="490" y="710"/>
      <point x="550" y="766" type="curve" smooth="yes"/>
      <point x="588" y="802"/>
      <point x="639" y="818"/>
      <point x="706" y="818" type="curve" smooth="yes"/>
      <point x="827" y="818"/>
      <point x="886" y="736"/>
      <point x="886" y="565" type="curve" smooth="yes"/>
      <point x="886" y="0" type="line"/>
      <point x="1191" y="0" type="line"/>
      <point x="1191" y="651" type="line" smooth="yes"/>
      <point x="1191" y="914"/>
      <point x="1050" y="1060"/>
      <point x="800" y="1060" type="curve" smooth="yes"/>
      <point x="649" y="1060"/>
      <point x="543" y="1012"/>
      <point x="468" y="892" type="curve"/>
      <point x="450" y="892" type="line"/>
      <point x="456" y="945"/>
      <point x="462" y="1049"/>
      <point x="462" y="1097" type="curve" smooth="yes"/>
      <point x="462" y="1199" type="line"/>
      <point x="768" y="1199" type="line"/>
      <point x="768" y="1392" type="line"/>
      <point x="463" y="1392" type="line"/>
      <point x="463" y="1556" type="line"/>
      <point x="160" y="1556" type="line"/>
      <point x="160" y="1392" type="line"/>
      <point x="4" y="1392" type="line"/>
      <point x="4" y="1199" type="line"/>
      <point x="160" y="1199" type="line"/>
    </contour>
  </outline>
</glyph>
<glyph name="Tbar" format="1">
  <advance width="1186"/>
  <unicode hex="0166"/>
  <note>
    Tbar
  </note>
  <outline>
    <contour>
      <point x="181" y="848" type="line"/>
      <point x="181" y="592" type="line"/>
      <point x="433" y="592" type="line"/>
      <point x="433" y="0" type="line"/>
      <point x="741" y="0" type="line"/>
      <point x="741" y="592" type="line"/>
      <point x="994" y="592" type="line"/>
      <point x="994" y="848" type="line"/>
      <point x="741" y="848" type="line"/>
      <point x="741" y="1207" type="line"/>
      <point x="1132" y="1207" type="line"/>
      <point x="1132" y="1462" type="line"/>
      <point x="41" y="1462" type="line"/>
      <point x="41" y="1207" type="line"/>
      <point x="433" y="1207" type="line"/>
      <point x="433" y="848" type="line"/>
    </contour>
  </outline>
</glyph>
<glyph name="longs" format="1">
  <advance width="784"/>
  <unicode hex="017F"/>
  <note>
    longs
  </note>
  <outline>
    <contour>
      <point x="160" y="0" type="line"/>
      <point x="463" y="0" type="line"/>
      <point x="463" y="1152" type="line" smooth="yes"/>
      <point x="463" y="1212"/>
      <point x="471" y="1254"/>
      <point x="485" y="1285" type="curve" smooth="yes"/>
      <point x="507" y="1327"/>
      <point x="545" y="1344"/>
      <point x="604" y="1344" type="curve" smooth="yes"/>
      <point x="661" y="1344"/>
      <point x="687" y="1335"/>
      <point x="761" y="1313" type="curve"/>
      <point x="820" y="1521" type="line"/>
      <point x="743" y="1552"/>
      <point x="651" y="1567"/>
      <point x="546" y="1567" type="curve" smooth="yes"/>
      <point x="269" y="1567"/>
      <point x="160" y="1455"/>
      <point x="160" y="1155" type="curve" smooth="yes"/>
    </contour>
    <contour>
      <point x="394" y="0" type="move" name="bottom"/>
    </contour>
    <contour>
      <point x="394" y="1119" type="move" name="top"/>
    </contour>
  </outline>
</glyph>
<glyph name="ohorn" format="1">
  <advance width="1391"/>
  <unicode hex="01A1"/>
  <note>
    ohorn
  </note>
  <outline>
    <contour>
      <point x="629" y="-20" type="curve" smooth="yes"/>
      <point x="971" y="-20"/>
      <point x="1172" y="196"/>
      <point x="1172" y="562" type="curve" smooth="yes"/>
      <point x="1172" y="667"/>
      <point x="1156" y="760"/>
      <point x="1122" y="841" type="curve"/>
      <point x="1325" y="898"/>
      <point x="1408" y="1029"/>
      <point x="1445" y="1266" type="curve"/>
      <point x="1431" y="1286" type="line"/>
      <point x="1138" y="1286" type="line"/>
      <point x="1136" y="1129"/>
      <point x="1095" y="1032"/>
      <point x="1021" y="1001" type="curve"/>
      <point x="925" y="1094"/>
      <point x="787" y="1139"/>
      <point x="635" y="1139" type="curve" smooth="yes"/>
      <point x="293" y="1139"/>
      <point x="92" y="927"/>
      <point x="92" y="562" type="curve" smooth="yes"/>
      <point x="92" y="211"/>
      <point x="296" y="-20"/>
    </contour>
    <contour>
      <point x="633" y="225" type="curve" smooth="yes"/>
      <point x="557" y="225"/>
      <point x="500" y="252"/>
      <point x="462" y="307" type="curve" smooth="yes"/>
      <point x="423" y="363"/>
      <point x="402" y="450"/>
      <point x="402" y="562" type="curve" smooth="yes"/>
      <point x="402" y="696"/>
      <point x="429" y="790"/>
      <point x="484" y="843" type="curve" smooth="yes"/>
      <point x="520" y="878"/>
      <point x="570" y="895"/>
      <point x="631" y="895" type="curve" smooth="yes"/>
      <point x="697" y="895"/>
      <point x="749" y="875"/>
      <point x="786" y="835" type="curve" smooth="yes"/>
      <point x="838" y="781"/>
      <point x="862" y="689"/>
      <point x="862" y="562" type="curve" smooth="yes"/>
      <point x="862" y="454"/>
      <point x="844" y="371"/>
      <point x="807" y="314" type="curve" smooth="yes"/>
      <point x="769" y="255"/>
      <point x="712" y="225"/>
    </contour>
    <contour>
      <point x="694" y="0" type="move" name="bottom"/>
    </contour>
    <contour>
      <point x="694" y="1119" type="move" name="top"/>
    </contour>
  </outline>
</glyph>
<glyph name="apostrophemod" format="1">
  <advance width="444"/>
  <unicode hex="02BC"/>
  <note>
    afii57929
  </note>
  <outline>
    <contour>
      <point x="25" y="902" type="curve"/>
      <point x="239" y="902" type="line"/>
      <point x="299" y="1036"/>
      <point x="358" y="1215"/>
      <point x="416" y="1439" type="curve"/>
      <point x="401" y="1461" type="line"/>
      <point x="127" y="1461" type="line"/>
      <point x="106" y="1291"/>
      <point x="69" y="1088"/>
    </contour>
  </outline>
</glyph>
<glyph name="firsttonechinese" format="1">
  <advance width="1243"/>
  <unicode hex="02C9"/>
  <note>
    uni02C9
  </note>
  <outline>
    <contour>
      <point x="283" y="1244" type="line"/>
      <point x="958" y="1244" type="line"/>
      <point x="958" y="1434" type="line"/>
      <point x="283" y="1434" type="line"/>
    </contour>
  </outline>
</glyph>
<glyph name="hungarumlaut" format="1">
  <advance width="1204"/>
  <unicode hex="02DD"/>
  <note>
    hungarumlaut
  </note>
  <outline>
    <component base="hungarumlautcomb" xOffset="-1"/>
    <contour>
      <point x="497" y="1126" type="move" name="_top"/>
    </contour>
  </outline>
</glyph>
<glyph name="gravecomb" format="1">
  <advance width="0"/>
  <unicode hex="0300"/>
  <note>
    gravecomb
  </note>
  <outline>
    <contour>
      <point x="-605" y="1241" type="curve"/>
      <point x="-402" y="1241" type="line"/>
      <point x="-402" y="1266" type="line"/>
      <point x="-539" y="1415"/>
      <point x="-623" y="1516"/>
      <point x="-658" y="1569" type="curve"/>
      <point x="-1002" y="1569" type="line"/>
      <point x="-1002" y="1549" type="line"/>
      <point x="-901" y="1461"/>
      <point x="-708" y="1314"/>
    </contour>
    <contour>
      <point x="-587" y="1124" type="move" name="_top"/>
    </contour>
    <contour>
      <point x="-702" y="1569" type="move" name="top"/>
    </contour>
  </outline>
</glyph>
<glyph name="acutecomb" format="1">
  <advance width="0"/>
  <unicode hex="0301"/>
  <note>
    acutecomb
  </note>
  <outline>
    <contour>
      <point x="-816" y="1241" type="line"/>
      <point x="-613" y="1241" type="line"/>
      <point x="-504" y="1318"/>
      <point x="-306" y="1469"/>
      <point x="-217" y="1549" type="curve"/>
      <point x="-217" y="1569" type="line"/>
      <point x="-559" y="1569" type="line"/>
      <point x="-609" y="1494"/>
      <point x="-705" y="1384"/>
      <point x="-816" y="1266" type="curve"/>
    </contour>
    <contour>
      <point x="-638" y="1131" type="move" name="_top"/>
    </contour>
    <contour>
      <point x="-517" y="1569" type="move" name="top"/>
    </contour>
  </outline>
</glyph>
<glyph name="circumflexcomb" format="1">
  <advance width="869"/>
  <unicode hex="0302"/>
  <note>
    circumflex
  </note>
  <outline>
    <contour>
      <point x="0" y="1241" type="line"/>
      <point x="201" y="1241" type="line"/>
      <point x="230" y="1261"/>
      <point x="263" y="1287"/>
      <point x="299" y="1317" type="curve" smooth="yes"/>
      <point x="331" y="1344"/>
      <point x="366" y="1374"/>
      <point x="404" y="1408" type="curve"/>
      <point x="441" y="1373"/>
      <point x="477" y="1342"/>
      <point x="512" y="1314" type="curve" smooth="yes"/>
      <point x="546" y="1287"/>
      <point x="579" y="1262"/>
      <point x="610" y="1241" type="curve"/>
      <point x="809" y="1241" type="line"/>
      <point x="809" y="1266" type="line"/>
      <point x="699" y="1380"/>
      <point x="615" y="1481"/>
      <point x="557" y="1569" type="curve"/>
      <point x="253" y="1569" type="line"/>
      <point x="201" y="1488"/>
      <point x="89" y="1354"/>
      <point x="0" y="1266" type="curve"/>
    </contour>
    <contour>
      <point x="405" y="1131" type="move" name="_top"/>
    </contour>
    <contour>
      <point x="405" y="1569" type="move" name="top"/>
    </contour>
  </outline>
</glyph>
<glyph name="tildecomb" format="1">
  <advance width="0"/>
  <unicode hex="0303"/>
  <note>
    tildecomb
  </note>
  <outline>
    <contour>
      <point x="-1056" y="1239" type="curve"/>
      <point x="-908" y="1239" type="line"/>
      <point x="-892" y="1319"/>
      <point x="-864" y="1354"/>
      <point x="-821" y="1354" type="curve" smooth="yes"/>
      <point x="-773" y="1354"/>
      <point x="-722" y="1328"/>
      <point x="-668" y="1301" type="curve" smooth="yes"/>
      <point x="-602" y="1263"/>
      <point x="-546" y="1240"/>
      <point x="-489" y="1240" type="curve" smooth="yes"/>
      <point x="-356" y="1240"/>
      <point x="-274" y="1348"/>
      <point x="-257" y="1551" type="curve"/>
      <point x="-407" y="1551" type="line"/>
      <point x="-422" y="1473"/>
      <point x="-449" y="1436"/>
      <point x="-495" y="1436" type="curve" smooth="yes"/>
      <point x="-543" y="1436"/>
      <point x="-596" y="1463"/>
      <point x="-651" y="1491" type="curve" smooth="yes"/>
      <point x="-709" y="1521"/>
      <point x="-764" y="1550"/>
      <point x="-819" y="1550" type="curve" smooth="yes"/>
      <point x="-964" y="1550"/>
      <point x="-1041" y="1446"/>
    </contour>
    <contour>
      <point x="-662" y="1131" type="move" name="_top"/>
    </contour>
    <contour>
      <point x="-656" y="1551" type="move" name="top"/>
    </contour>
  </outline>
</glyph>
<glyph name="macroncomb" format="1">
  <advance width="600"/>
  <unicode hex="0304"/>
  <outline>
    <contour>
      <point x="-23" y="1244" type="line"/>
      <point x="653" y="1244" type="line"/>
      <point x="653" y="1434" type="line"/>
      <point x="-23" y="1434" type="line"/>
    </contour>
    <contour>
      <point x="314" y="1131" type="move" name="_top"/>
    </contour>
    <contour>
      <point x="315" y="1434" type="move" name="top"/>
    </contour>
  </outline>
</glyph>
<glyph name="brevecomb" format="1">
  <advance width="1243"/>
  <unicode hex="0306"/>
  <note>
    breve
  </note>
  <outline>
    <contour>
      <point x="591" y="1241" type="curve" smooth="yes"/>
      <point x="810" y="1241"/>
      <point x="944" y="1366"/>
      <point x="960" y="1574" type="curve"/>
      <point x="782" y="1574" type="line"/>
      <point x="759" y="1476"/>
      <point x="702" y="1434"/>
      <point x="591" y="1434" type="curve" smooth="yes"/>
      <point x="467" y="1434"/>
      <point x="424" y="1467"/>
      <point x="400" y="1574" type="curve"/>
      <point x="227" y="1574" type="line"/>
      <point x="240" y="1357"/>
      <point x="366" y="1241"/>
    </contour>
    <contour>
      <point x="594" y="1131" type="move" name="_top"/>
    </contour>
    <contour>
      <point x="594" y="1574" type="move" name="top"/>
    </contour>
  </outline>
</glyph>
<glyph name="dotaccentcomb" format="1">
  <advance width="625"/>
  <unicode hex="0307"/>
  <note>
    dotaccent
  </note>
  <outline>
    <contour>
      <point x="311" y="1258" type="curve" smooth="yes"/>
      <point x="421" y="1258"/>
      <point x="477" y="1309"/>
      <point x="477" y="1407" type="curve" smooth="yes"/>
      <point x="477" y="1506"/>
      <point x="425" y="1558"/>
      <point x="311" y="1558" type="curve" smooth="yes"/>
      <point x="197" y="1558"/>
      <point x="147" y="1508"/>
      <point x="147" y="1407" type="curve" smooth="yes"/>
      <point x="147" y="1307"/>
      <point x="202" y="1258"/>
    </contour>
    <contour>
      <point x="312" y="1119" type="move" name="_top"/>
    </contour>
    <contour>
      <point x="312" y="1558" type="move" name="top"/>
    </contour>
  </outline>
</glyph>
<glyph name="dieresiscomb" format="1">
  <advance width="1243"/>
  <unicode hex="0308"/>
  <note>
    dieresis
  </note>
  <outline>
    <contour>
      <point x="868" y="1271" type="curve" smooth="yes"/>
      <point x="956" y="1271"/>
      <point x="1008" y="1322"/>
      <point x="1008" y="1406" type="curve" smooth="yes"/>
      <point x="1008" y="1490"/>
      <point x="956" y="1542"/>
      <point x="868" y="1542" type="curve" smooth="yes"/>
      <point x="780" y="1542"/>
      <point x="729" y="1494"/>
      <point x="729" y="1406" type="curve" smooth="yes"/>
      <point x="729" y="1321"/>
      <point x="780" y="1271"/>
    </contour>
    <contour>
      <point x="417" y="1271" type="curve" smooth="yes"/>
      <point x="503" y="1271"/>
      <point x="556" y="1322"/>
      <point x="556" y="1406" type="curve" smooth="yes"/>
      <point x="556" y="1491"/>
      <point x="503" y="1542"/>
      <point x="417" y="1542" type="curve" smooth="yes"/>
      <point x="331" y="1542"/>
      <point x="279" y="1494"/>
      <point x="279" y="1406" type="curve" smooth="yes"/>
      <point x="279" y="1319"/>
      <point x="331" y="1271"/>
    </contour>
    <contour>
      <point x="644" y="1131" type="move" name="_top"/>
    </contour>
    <contour>
      <point x="644" y="1542" type="move" name="top"/>
    </contour>
  </outline>
</glyph>
<glyph name="hookabovecomb" format="1">
  <advance width="0"/>
  <unicode hex="0309"/>
  <note>
    hookabovecomb
  </note>
  <outline>
    <contour>
      <point x="-696" y="1220" type="line"/>
      <point x="-527" y="1220" type="line"/>
      <point x="-516" y="1289" type="line"/>
      <point x="-402" y="1318"/>
      <point x="-348" y="1389"/>
      <point x="-348" y="1490" type="curve" smooth="yes"/>
      <point x="-348" y="1624"/>
      <point x="-444" y="1702"/>
      <point x="-621" y="1702" type="curve" smooth="yes"/>
      <point x="-691" y="1702"/>
      <point x="-753" y="1694"/>
      <point x="-807" y="1677" type="curve"/>
      <point x="-807" y="1511" type="line"/>
      <point x="-742" y="1531"/>
      <point x="-720" y="1533"/>
      <point x="-682" y="1533" type="curve" smooth="yes"/>
      <point x="-622" y="1533"/>
      <point x="-589" y="1506"/>
      <point x="-589" y="1460" type="curve" smooth="yes"/>
      <point x="-589" y="1408"/>
      <point x="-621" y="1377"/>
      <point x="-718" y="1364" type="curve"/>
    </contour>
    <contour>
      <point x="-594" y="1119" type="move" name="_top"/>
    </contour>
    <contour>
      <point x="-577" y="1702" type="move" name="top"/>
    </contour>
  </outline>
</glyph>
<glyph name="ringcomb" format="1">
  <advance width="1182"/>
  <unicode hex="030A"/>
  <note>
    ring
  </note>
  <outline>
    <contour>
      <point x="590" y="1239" type="curve" smooth="yes"/>
      <point x="740" y="1239"/>
      <point x="845" y="1336"/>
      <point x="845" y="1481" type="curve" smooth="yes"/>
      <point x="845" y="1622"/>
      <point x="738" y="1720"/>
      <point x="590" y="1720" type="curve" smooth="yes"/>
      <point x="438" y="1720"/>
      <point x="340" y="1625"/>
      <point x="340" y="1479" type="curve" smooth="yes"/>
      <point x="340" y="1333"/>
      <point x="438" y="1239"/>
    </contour>
    <contour>
      <point x="590" y="1378" type="curve" smooth="yes"/>
      <point x="526" y="1378"/>
      <point x="490" y="1418"/>
      <point x="490" y="1479" type="curve" smooth="yes"/>
      <point x="490" y="1540"/>
      <point x="532" y="1580"/>
      <point x="590" y="1580" type="curve" smooth="yes"/>
      <point x="646" y="1580"/>
      <point x="690" y="1540"/>
      <point x="690" y="1479" type="curve" smooth="yes"/>
      <point x="690" y="1418"/>
      <point x="648" y="1378"/>
    </contour>
    <contour>
      <point x="593" y="1119" type="move" name="_top"/>
    </contour>
    <contour>
      <point x="593" y="1720" type="move" name="top"/>
    </contour>
  </outline>
</glyph>
<glyph name="hungarumlautcomb" format="1">
  <advance width="1204"/>
  <unicode hex="030B"/>
  <note>
    hungarumlaut
  </note>
  <outline>
    <contour>
      <point x="581" y="1241" type="line"/>
      <point x="744" y="1241" type="line"/>
      <point x="881" y="1339"/>
      <point x="1032" y="1469"/>
      <point x="1084" y="1549" type="curve"/>
      <point x="1084" y="1569" type="line"/>
      <point x="782" y="1569" type="line"/>
      <point x="742" y="1492"/>
      <point x="681" y="1397"/>
      <point x="581" y="1266" type="curve"/>
    </contour>
    <contour>
      <point x="156" y="1241" type="line"/>
      <point x="319" y="1241" type="line"/>
      <point x="476" y="1355"/>
      <point x="607" y="1472"/>
      <point x="657" y="1549" type="curve"/>
      <point x="657" y="1569" type="line"/>
      <point x="357" y="1569" type="line"/>
      <point x="316" y="1493"/>
      <point x="255" y="1397"/>
      <point x="156" y="1266" type="curve"/>
    </contour>
    <contour>
      <point x="599" y="1119" type="move" name="_top"/>
    </contour>
    <contour>
      <point x="620" y="1569" type="move" name="top"/>
    </contour>
  </outline>
</glyph>
<glyph name="caroncomb" format="1">
  <advance width="1243"/>
  <unicode hex="030C"/>
  <note>
    caron
  </note>
  <outline>
    <contour>
      <point x="439" y="1241" type="curve"/>
      <point x="743" y="1241" type="line"/>
      <point x="760" y="1268"/>
      <point x="782" y="1297"/>
      <point x="807" y="1328" type="curve" smooth="yes"/>
      <point x="862" y="1398"/>
      <point x="930" y="1476"/>
      <point x="995" y="1544" type="curve"/>
      <point x="995" y="1569" type="line"/>
      <point x="796" y="1569" type="line"/>
      <point x="735" y="1528"/>
      <point x="666" y="1472"/>
      <point x="590" y="1402" type="curve"/>
      <point x="510" y="1474"/>
      <point x="442" y="1530"/>
      <point x="387" y="1569" type="curve"/>
      <point x="186" y="1569" type="line"/>
      <point x="186" y="1544" type="line"/>
      <point x="253" y="1475"/>
      <point x="318" y="1402"/>
      <point x="370" y="1337" type="curve" smooth="yes"/>
      <point x="397" y="1302"/>
      <point x="421" y="1270"/>
    </contour>
    <contour>
      <point x="591" y="1119" type="move" name="_top"/>
    </contour>
    <contour>
      <point x="591" y="1569" type="move" name="top"/>
    </contour>
  </outline>
</glyph>
<glyph name="dblgravecomb" format="1">
  <advance width="0"/>
  <unicode hex="030F"/>
  <note>
    uni030F
  </note>
  <outline>
    <contour>
      <point x="-460" y="1241" type="curve"/>
      <point x="-298" y="1241" type="line"/>
      <point x="-298" y="1266" type="line"/>
      <point x="-355" y="1340"/>
      <point x="-425" y="1461"/>
      <point x="-476" y="1569" type="curve"/>
      <point x="-756" y="1569" type="line"/>
      <point x="-756" y="1549" type="line"/>
      <point x="-709" y="1474"/>
      <point x="-561" y="1322"/>
    </contour>
    <contour>
      <point x="-858" y="1241" type="curve"/>
      <point x="-696" y="1241" type="line"/>
      <point x="-696" y="1266" type="line"/>
      <point x="-749" y="1334"/>
      <point x="-823" y="1466"/>
      <point x="-873" y="1569" type="curve"/>
      <point x="-1153" y="1569" type="line"/>
      <point x="-1153" y="1549" type="line"/>
      <point x="-1108" y="1477"/>
      <point x="-959" y="1322"/>
    </contour>
    <contour>
      <point x="-725" y="1119" type="move" name="_top"/>
    </contour>
    <contour>
      <point x="-725" y="1569" type="move" name="top"/>
    </contour>
  </outline>
</glyph>
<glyph name="commaturnedabovecomb" format="1">
  <advance width="600"/>
  <unicode hex="0312"/>
  <outline>
    <contour>
      <point x="424" y="1241" type="line"/>
      <point x="708" y="1241" type="line"/>
      <point x="715" y="1315"/>
      <point x="738" y="1434"/>
      <point x="765" y="1544" type="curve"/>
      <point x="765" y="1569" type="line"/>
      <point x="587" y="1569" type="line"/>
      <point x="516" y="1473"/>
      <point x="465" y="1364"/>
      <point x="424" y="1261" type="curve"/>
    </contour>
    <contour>
      <point x="577" y="1119" type="move" name="_top"/>
    </contour>
    <contour>
      <point x="595" y="1569" type="move" name="top"/>
    </contour>
  </outline>
</glyph>
<glyph name="dotbelowcomb" format="1">
  <advance width="0"/>
  <unicode hex="0323"/>
  <note>
    dotbelowcomb
  </note>
  <outline>
    <contour>
      <point x="-644" y="-432" type="curve" smooth="yes"/>
      <point x="-534" y="-432"/>
      <point x="-477" y="-381"/>
      <point x="-477" y="-282" type="curve" smooth="yes"/>
      <point x="-477" y="-183"/>
      <point x="-530" y="-131"/>
      <point x="-644" y="-131" type="curve" smooth="yes"/>
      <point x="-757" y="-131"/>
      <point x="-807" y="-180"/>
      <point x="-807" y="-282" type="curve" smooth="yes"/>
      <point x="-807" y="-383"/>
      <point x="-754" y="-432"/>
    </contour>
    <contour>
      <point x="-642" y="0" type="move" name="_bottom"/>
    </contour>
    <contour>
      <point x="-642" y="-432" type="move" name="bottom"/>
    </contour>
  </outline>
</glyph>
<glyph name="commaaccentcomb" format="1">
  <advance width="600"/>
  <unicode hex="0326"/>
  <outline>
    <contour>
      <point x="99" y="-453" type="line"/>
      <point x="279" y="-453" type="line"/>
      <point x="341" y="-363"/>
      <point x="398" y="-254"/>
      <point x="440" y="-145" type="curve"/>
      <point x="440" y="-125" type="line"/>
      <point x="158" y="-125" type="line"/>
      <point x="151" y="-214"/>
      <point x="123" y="-354"/>
      <point x="99" y="-428" type="curve"/>
    </contour>
    <contour>
      <point x="279" y="0" type="move" name="_bottom"/>
    </contour>
    <contour>
      <point x="270" y="-453" type="move" name="bottom"/>
    </contour>
  </outline>
</glyph>
<glyph name="cedillacomb" format="1">
  <advance width="420"/>
  <unicode hex="0327"/>
  <note>
    cedilla
  </note>
  <outline>
    <contour>
      <point x="140" y="-492" type="curve" smooth="yes"/>
      <point x="304" y="-492"/>
      <point x="408" y="-405"/>
      <point x="408" y="-264" type="curve" smooth="yes"/>
      <point x="408" y="-164"/>
      <point x="362" y="-99"/>
      <point x="239" y="-55" type="curve"/>
      <point x="265" y="0" type="line"/>
      <point x="94" y="0" type="line"/>
      <point x="16" y="-150" type="line"/>
      <point x="116" y="-169"/>
      <point x="177" y="-205"/>
      <point x="177" y="-255" type="curve" smooth="yes"/>
      <point x="177" y="-298"/>
      <point x="149" y="-320"/>
      <point x="93" y="-320" type="curve" smooth="yes"/>
      <point x="51" y="-320"/>
      <point x="7" y="-313"/>
      <point x="-37" y="-299" type="curve"/>
      <point x="-37" y="-468" type="line"/>
      <point x="3" y="-484"/>
      <point x="63" y="-492"/>
    </contour>
    <contour>
      <point x="186" y="0" type="move" name="_bottom"/>
    </contour>
    <contour>
      <point x="186" y="-492" type="move" name="bottom"/>
    </contour>
  </outline>
</glyph>
<glyph name="ogonekcomb" format="1">
  <advance width="422"/>
  <unicode hex="0328"/>
  <note>
    ogonek
  </note>
  <outline>
    <contour>
      <point x="258" y="-478" type="curve" smooth="yes"/>
      <point x="313" y="-478"/>
      <point x="364" y="-470"/>
      <point x="411" y="-455" type="curve"/>
      <point x="411" y="-275" type="line"/>
      <point x="382" y="-288"/>
      <point x="346" y="-294"/>
      <point x="304" y="-294" type="curve" smooth="yes"/>
      <point x="246" y="-294"/>
      <point x="217" y="-267"/>
      <point x="217" y="-214" type="curve" smooth="yes"/>
      <point x="217" y="-137"/>
      <point x="274" y="-71"/>
      <point x="353" y="0" type="curve"/>
      <point x="177" y="0" type="line"/>
      <point x="61" y="-84"/>
      <point x="10" y="-169"/>
      <point x="10" y="-261" type="curve" smooth="yes"/>
      <point x="10" y="-392"/>
      <point x="110" y="-478"/>
    </contour>
    <contour>
      <point x="372" y="10" type="move" name="_ogonek"/>
    </contour>
  </outline>
</glyph>
<glyph name="tonos" format="1">
  <advance width="1182"/>
  <unicode hex="0384"/>
  <note>
    tonos
  </note>
  <outline>
    <contour>
      <point x="471" y="1241" type="line"/>
      <point x="646" y="1241" type="line"/>
      <point x="720" y="1361"/>
      <point x="784" y="1497"/>
      <point x="830" y="1612" type="curve"/>
      <point x="830" y="1635" type="line"/>
      <point x="554" y="1635" type="line"/>
      <point x="540" y="1536"/>
      <point x="502" y="1363"/>
      <point x="471" y="1269" type="curve"/>
    </contour>
    <contour>
      <point x="651" y="1112" type="move" name="_top"/>
    </contour>
    <contour>
      <point x="831" y="1556" type="move" name="_topleft"/>
    </contour>
  </outline>
</glyph>
<glyph name="dieresistonos" format="1">
  <advance width="1182"/>
  <unicode hex="0385"/>
  <note>
    dieresistonos
  </note>
  <outline>
    <contour>
      <point x="493" y="1389" type="line"/>
      <point x="631" y="1389" type="line"/>
      <point x="709" y="1506"/>
      <point x="774" y="1621"/>
      <point x="805" y="1697" type="curve"/>
      <point x="805" y="1716" type="line"/>
      <point x="555" y="1716" type="line"/>
      <point x="546" y="1645"/>
      <point x="525" y="1544"/>
      <point x="493" y="1413" type="curve"/>
    </contour>
    <contour>
      <point x="312" y="1271" type="curve" smooth="yes"/>
      <point x="389" y="1271"/>
      <point x="440" y="1314"/>
      <point x="440" y="1406" type="curve" smooth="yes"/>
      <point x="440" y="1499"/>
      <point x="389" y="1542"/>
      <point x="312" y="1542" type="curve" smooth="yes"/>
      <point x="228" y="1542"/>
      <point x="186" y="1496"/>
      <point x="186" y="1406" type="curve" smooth="yes"/>
      <point x="186" y="1316"/>
      <point x="228" y="1271"/>
    </contour>
    <contour>
      <point x="876" y="1271" type="curve" smooth="yes"/>
      <point x="955" y="1271"/>
      <point x="1004" y="1314"/>
      <point x="1004" y="1406" type="curve" smooth="yes"/>
      <point x="1004" y="1499"/>
      <point x="955" y="1542"/>
      <point x="876" y="1542" type="curve" smooth="yes"/>
      <point x="790" y="1542"/>
      <point x="747" y="1496"/>
      <point x="747" y="1406" type="curve" smooth="yes"/>
      <point x="747" y="1316"/>
      <point x="790" y="1271"/>
    </contour>
    <contour>
      <point x="595" y="1119" type="move" name="_top"/>
    </contour>
  </outline>
</glyph>
<glyph name="Omicron" format="1">
  <advance width="1630"/>
  <unicode hex="039F"/>
  <note>
    Omicron
  </note>
  <outline>
    <component base="O"/>
    <contour>
      <point x="24.092" y="1462" type="move" name="topleft"/>
    </contour>
  </outline>
</glyph>
<glyph name="Sigma" format="1">
  <advance width="1214"/>
  <unicode hex="03A3"/>
  <note>
    Sigma
  </note>
  <outline>
    <contour>
      <point x="78" y="0" type="line"/>
      <point x="1147" y="0" type="line"/>
      <point x="1147" y="254" type="line"/>
      <point x="647" y="254" type="line" smooth="yes"/>
      <point x="578" y="254"/>
      <point x="503" y="251"/>
      <point x="419" y="244" type="curve"/>
      <point x="889" y="769" type="line"/>
      <point x="439" y="1219" type="line"/>
      <point x="494" y="1214"/>
      <point x="567" y="1212"/>
      <point x="659" y="1212" type="curve" smooth="yes"/>
      <point x="1088" y="1212" type="line"/>
      <point x="1088" y="1462" type="line"/>
      <point x="90" y="1462" type="line"/>
      <point x="90" y="1229" type="line"/>
      <point x="549" y="766" type="line"/>
      <point x="78" y="240" type="line"/>
    </contour>
  </outline>
</glyph>
<glyph name="beta" format="1">
  <advance width="1352"/>
  <unicode hex="03B2"/>
  <note>
    beta
  </note>
  <outline>
    <contour>
      <point x="160" y="-492" type="line"/>
      <point x="463" y="-492" type="line"/>
      <point x="463" y="54" type="line"/>
      <point x="550" y="9"/>
      <point x="669" y="-18"/>
      <point x="795" y="-18" type="curve" smooth="yes"/>
      <point x="1090" y="-18"/>
      <point x="1279" y="156"/>
      <point x="1279" y="435" type="curve" smooth="yes"/>
      <point x="1279" y="664"/>
      <point x="1165" y="791"/>
      <point x="915" y="824" type="curve"/>
      <point x="915" y="831" type="line"/>
      <point x="1097" y="862"/>
      <point x="1198" y="980"/>
      <point x="1198" y="1174" type="curve" smooth="yes"/>
      <point x="1198" y="1420"/>
      <point x="1010" y="1567"/>
      <point x="697" y="1567" type="curve" smooth="yes"/>
      <point x="357" y="1567"/>
      <point x="160" y="1394"/>
      <point x="160" y="1095" type="curve" smooth="yes"/>
    </contour>
    <contour>
      <point x="708" y="221" type="curve" smooth="yes"/>
      <point x="629" y="221"/>
      <point x="535" y="246"/>
      <point x="463" y="289" type="curve"/>
      <point x="463" y="1072" type="line" smooth="yes"/>
      <point x="463" y="1248"/>
      <point x="536" y="1337"/>
      <point x="688" y="1337" type="curve" smooth="yes"/>
      <point x="815" y="1337"/>
      <point x="894" y="1263"/>
      <point x="894" y="1135" type="curve" smooth="yes"/>
      <point x="894" y="1000"/>
      <point x="824" y="920"/>
      <point x="694" y="920" type="curve" smooth="yes"/>
      <point x="636" y="920" type="line"/>
      <point x="636" y="690" type="line"/>
      <point x="711" y="690" type="line" smooth="yes"/>
      <point x="880" y="690"/>
      <point x="972" y="607"/>
      <point x="972" y="460" type="curve" smooth="yes"/>
      <point x="972" y="304"/>
      <point x="873" y="221"/>
    </contour>
  </outline>
</glyph>
<glyph name="theta" format="1">
  <advance width="1266"/>
  <unicode hex="03B8"/>
  <note>
    theta
  </note>
  <outline>
    <contour>
      <point x="628" y="-20" type="curve" smooth="yes"/>
      <point x="991" y="-20"/>
      <point x="1171" y="242"/>
      <point x="1171" y="781" type="curve" smooth="yes"/>
      <point x="1171" y="1302"/>
      <point x="986" y="1579"/>
      <point x="630" y="1579" type="curve" smooth="yes"/>
      <point x="271" y="1579"/>
      <point x="92" y="1318"/>
      <point x="92" y="780" type="curve" smooth="yes"/>
      <point x="92" y="255"/>
      <point x="278" y="-20"/>
    </contour>
    <contour>
      <point x="629" y="198" type="curve" smooth="yes"/>
      <point x="552" y="198"/>
      <point x="495" y="239"/>
      <point x="458" y="321" type="curve" smooth="yes"/>
      <point x="421" y="401"/>
      <point x="401" y="520"/>
      <point x="399" y="677" type="curve"/>
      <point x="863" y="677" type="line"/>
      <point x="860" y="512"/>
      <point x="838" y="390"/>
      <point x="797" y="311" type="curve" smooth="yes"/>
      <point x="759" y="236"/>
      <point x="703" y="198"/>
    </contour>
    <contour>
      <point x="402" y="894" type="line"/>
      <point x="407" y="1067"/>
      <point x="433" y="1193"/>
      <point x="481" y="1268" type="curve" smooth="yes"/>
      <point x="516" y="1330"/>
      <point x="566" y="1361"/>
      <point x="631" y="1361" type="curve" smooth="yes"/>
      <point x="695" y="1361"/>
      <point x="744" y="1331"/>
      <point x="780" y="1272" type="curve" smooth="yes"/>
      <point x="830" y="1198"/>
      <point x="857" y="1073"/>
      <point x="864" y="894" type="curve"/>
    </contour>
  </outline>
</glyph>
<glyph name="iota" format="1">
  <advance width="834"/>
  <unicode hex="03B9"/>
  <note>
    iota
  </note>
  <outline>
    <contour>
      <point x="532" y="-20" type="curve" smooth="yes"/>
      <point x="628" y="-20"/>
      <point x="719" y="-2"/>
      <point x="790" y="30" type="curve"/>
      <point x="790" y="256" type="line"/>
      <point x="721" y="233"/>
      <point x="669" y="221"/>
      <point x="605" y="221" type="curve" smooth="yes"/>
      <point x="508" y="221"/>
      <point x="463" y="265"/>
      <point x="463" y="366" type="curve" smooth="yes"/>
      <point x="463" y="1119" type="line"/>
      <point x="160" y="1119" type="line"/>
      <point x="160" y="351" type="line" smooth="yes"/>
      <point x="160" y="104"/>
      <point x="275" y="-20"/>
    </contour>
    <contour>
      <point x="350" y="1119" type="move" name="top"/>
    </contour>
  </outline>
</glyph>
<glyph name="pi" format="1">
  <advance width="1513"/>
  <unicode hex="03C0"/>
  <note>
    pi
  </note>
  <outline>
    <contour>
      <point x="1194" y="-20" type="curve" smooth="yes"/>
      <point x="1281" y="-20"/>
      <point x="1375" y="2"/>
      <point x="1430" y="36" type="curve"/>
      <point x="1430" y="249" type="line"/>
      <point x="1394" y="232"/>
      <point x="1341" y="221"/>
      <point x="1302" y="221" type="curve" smooth="yes"/>
      <point x="1238" y="221"/>
      <point x="1202" y="265"/>
      <point x="1202" y="343" type="curve" smooth="yes"/>
      <point x="1202" y="890" type="line"/>
      <point x="1443" y="890" type="line"/>
      <point x="1443" y="1119" type="line"/>
      <point x="214" y="1119" type="line"/>
      <point x="25" y="1023" type="line"/>
      <point x="25" y="890" type="line"/>
      <point x="260" y="890" type="line"/>
      <point x="260" y="0" type="line"/>
      <point x="563" y="0" type="line"/>
      <point x="563" y="890" type="line"/>
      <point x="899" y="890" type="line"/>
      <point x="899" y="309" type="line" smooth="yes"/>
      <point x="899" y="87"/>
      <point x="996" y="-20"/>
    </contour>
  </outline>
</glyph>
<glyph name="sigmafinal" format="1">
  <advance width="1020"/>
  <unicode hex="03C2"/>
  <note>
    sigma1
  </note>
  <outline>
    <contour>
      <point x="564" y="-376" type="curve"/>
      <point x="872" y="-376" type="line"/>
      <point x="910" y="-326"/>
      <point x="938" y="-280"/>
      <point x="958" y="-239" type="curve" smooth="yes"/>
      <point x="987" y="-176"/>
      <point x="1004" y="-114"/>
      <point x="1004" y="-51" type="curve" smooth="yes"/>
      <point x="1004" y="24"/>
      <point x="982" y="82"/>
      <point x="937" y="127" type="curve" smooth="yes"/>
      <point x="888" y="176"/>
      <point x="812" y="209"/>
      <point x="706" y="231" type="curve" smooth="yes"/>
      <point x="629" y="247"/>
      <point x="569" y="268"/>
      <point x="525" y="292" type="curve" smooth="yes"/>
      <point x="437" y="341"/>
      <point x="401" y="402"/>
      <point x="401" y="540" type="curve" smooth="yes"/>
      <point x="401" y="777"/>
      <point x="487" y="898"/>
      <point x="652" y="898" type="curve" smooth="yes"/>
      <point x="723" y="898"/>
      <point x="832" y="869"/>
      <point x="926" y="832" type="curve"/>
      <point x="1012" y="1059" type="line"/>
      <point x="895" y="1113"/>
      <point x="776" y="1139"/>
      <point x="654" y="1139" type="curve" smooth="yes"/>
      <point x="293" y="1139"/>
      <point x="92" y="925"/>
      <point x="92" y="542" type="curve" smooth="yes"/>
      <point x="92" y="441"/>
      <point x="104" y="356"/>
      <point x="130" y="287" type="curve" smooth="yes"/>
      <point x="179" y="147"/>
      <point x="274" y="65"/>
      <point x="461" y="24" type="curve" smooth="yes"/>
      <point x="530" y="10"/>
      <point x="583" y="-6"/>
      <point x="619" y="-21" type="curve" smooth="yes"/>
      <point x="681" y="-46"/>
      <point x="704" y="-70"/>
      <point x="704" y="-114" type="curve" smooth="yes"/>
      <point x="704" y="-167"/>
      <point x="646" y="-280"/>
    </contour>
  </outline>
</glyph>
<glyph name="sigma" format="1">
  <advance width="1337"/>
  <unicode hex="03C3"/>
  <note>
    sigma
  </note>
  <outline>
    <contour>
      <point x="638" y="-20" type="curve" smooth="yes"/>
      <point x="754" y="-20"/>
      <point x="855" y="2"/>
      <point x="939" y="46" type="curve" smooth="yes"/>
      <point x="1100" y="129"/>
      <point x="1189" y="287"/>
      <point x="1189" y="489" type="curve" smooth="yes"/>
      <point x="1189" y="655"/>
      <point x="1129" y="788"/>
      <point x="1010" y="890" type="curve"/>
      <point x="1281" y="890" type="line"/>
      <point x="1281" y="1119" type="line"/>
      <point x="744" y="1119" type="line" smooth="yes"/>
      <point x="303" y="1119"/>
      <point x="92" y="926"/>
      <point x="92" y="521" type="curve" smooth="yes"/>
      <point x="92" y="184"/>
      <point x="300" y="-20"/>
    </contour>
    <contour>
      <point x="642" y="225" type="curve" smooth="yes"/>
      <point x="568" y="225"/>
      <point x="509" y="251"/>
      <point x="468" y="300" type="curve" smooth="yes"/>
      <point x="426" y="350"/>
      <point x="402" y="426"/>
      <point x="402" y="522" type="curve" smooth="yes"/>
      <point x="402" y="665"/>
      <point x="433" y="763"/>
      <point x="497" y="822" type="curve" smooth="yes"/>
      <point x="547" y="868"/>
      <point x="619" y="890"/>
      <point x="715" y="890" type="curve" smooth="yes"/>
      <point x="754" y="890" type="line"/>
      <point x="790" y="843"/>
      <point x="817" y="802"/>
      <point x="834" y="766" type="curve" smooth="yes"/>
      <point x="865" y="699"/>
      <point x="880" y="624"/>
      <point x="880" y="527" type="curve" smooth="yes"/>
      <point x="880" y="413"/>
      <point x="851" y="327"/>
      <point x="794" y="278" type="curve" smooth="yes"/>
      <point x="756" y="243"/>
      <point x="706" y="225"/>
    </contour>
  </outline>
</glyph>
<glyph name="thetaSymbol" format="1">
  <advance width="1499"/>
  <unicode hex="03D1"/>
  <note>
    theta1
  </note>
  <outline>
    <contour>
      <point x="726" y="-20" type="curve" smooth="yes"/>
      <point x="1111" y="-20"/>
      <point x="1314" y="223"/>
      <point x="1314" y="672" type="curve" smooth="yes"/>
      <point x="1314" y="701"/>
      <point x="1313" y="721"/>
      <point x="1311" y="755" type="curve"/>
      <point x="1439" y="755" type="line"/>
      <point x="1439" y="985" type="line"/>
      <point x="1294" y="985" type="line"/>
      <point x="1260" y="1223"/>
      <point x="1176" y="1390"/>
      <point x="1045" y="1483" type="curve" smooth="yes"/>
      <point x="959" y="1545"/>
      <point x="852" y="1576"/>
      <point x="727" y="1576" type="curve" smooth="yes"/>
      <point x="482" y="1576"/>
      <point x="301" y="1449"/>
      <point x="301" y="1219" type="curve" smooth="yes"/>
      <point x="301" y="909"/>
      <point x="604" y="760"/>
      <point x="1006" y="756" type="curve"/>
      <point x="1008" y="732"/>
      <point x="1009" y="707"/>
      <point x="1009" y="682" type="curve" smooth="yes"/>
      <point x="1009" y="366"/>
      <point x="926" y="210"/>
      <point x="743" y="210" type="curve" smooth="yes"/>
      <point x="603" y="210"/>
      <point x="540" y="265"/>
      <point x="540" y="408" type="curve" smooth="yes"/>
      <point x="540" y="437"/>
      <point x="543" y="473"/>
      <point x="548" y="515" type="curve" smooth="yes"/>
      <point x="553" y="557"/>
      <point x="556" y="592"/>
      <point x="556" y="623" type="curve" smooth="yes"/>
      <point x="556" y="737"/>
      <point x="470" y="806"/>
      <point x="347" y="806" type="curve" smooth="yes"/>
      <point x="244" y="806"/>
      <point x="143" y="776"/>
      <point x="41" y="716" type="curve"/>
      <point x="121" y="537" type="line"/>
      <point x="154" y="556"/>
      <point x="183" y="566"/>
      <point x="211" y="566" type="curve" smooth="yes"/>
      <point x="248" y="566"/>
      <point x="272" y="549"/>
      <point x="272" y="492" type="curve" smooth="yes"/>
      <point x="272" y="474"/>
      <point x="270" y="448"/>
      <point x="265" y="413" type="curve" smooth="yes"/>
      <point x="261" y="377"/>
      <point x="259" y="346"/>
      <point x="259" y="321" type="curve"/>
      <point x="259" y="89"/>
      <point x="412" y="-20"/>
    </contour>
    <contour>
      <point x="994" y="985" type="curve"/>
      <point x="748" y="989"/>
      <point x="603" y="1077"/>
      <point x="603" y="1218" type="curve" smooth="yes"/>
      <point x="603" y="1301"/>
      <point x="649" y="1346"/>
      <point x="734" y="1346" type="curve" smooth="yes"/>
      <point x="790" y="1346"/>
      <point x="839" y="1324"/>
      <point x="879" y="1283" type="curve" smooth="yes"/>
      <point x="938" y="1224"/>
      <point x="978" y="1122"/>
    </contour>
  </outline>
</glyph>
<glyph name="Dje-cy" format="1">
  <advance width="1649"/>
  <unicode hex="0402"/>
  <note>
    afii10051
  </note>
  <outline>
    <contour>
      <point x="1097" y="-20" type="curve" smooth="yes"/>
      <point x="1362" y="-20"/>
      <point x="1498" y="124"/>
      <point x="1498" y="405" type="curve" smooth="yes"/>
      <point x="1498" y="538" type="line" smooth="yes"/>
      <point x="1498" y="792"/>
      <point x="1337" y="933"/>
      <point x="1033" y="933" type="curve" smooth="yes"/>
      <point x="700" y="933" type="line"/>
      <point x="700" y="1207" type="line"/>
      <point x="1130" y="1207" type="line"/>
      <point x="1130" y="1462" type="line"/>
      <point x="41" y="1462" type="line"/>
      <point x="41" y="1207" type="line"/>
      <point x="391" y="1207" type="line"/>
      <point x="391" y="0" type="line"/>
      <point x="700" y="0" type="line"/>
      <point x="700" y="678" type="line"/>
      <point x="1016" y="678" type="line" smooth="yes"/>
      <point x="1136" y="678"/>
      <point x="1190" y="631"/>
      <point x="1190" y="522" type="curve" smooth="yes"/>
      <point x="1190" y="376" type="line" smooth="yes"/>
      <point x="1190" y="276"/>
      <point x="1144" y="222"/>
      <point x="1056" y="222" type="curve" smooth="yes"/>
      <point x="1007" y="222"/>
      <point x="961" y="231"/>
      <point x="919" y="248" type="curve"/>
      <point x="919" y="5" type="line"/>
      <point x="958" y="-12"/>
      <point x="1018" y="-20"/>
    </contour>
  </outline>
</glyph>
<glyph name="O-cy" format="1">
  <advance width="1630"/>
  <unicode hex="041E"/>
  <note>
    afii10032
  </note>
  <outline>
    <component base="O"/>
    <contour>
      <point x="806.1" y="1462" type="move" name="top"/>
    </contour>
  </outline>
</glyph>
<glyph name="Iu-cy" format="1">
  <advance width="2191"/>
  <unicode hex="042E"/>
  <note>
    afii10048
  </note>
  <outline>
    <contour>
      <point x="1421" y="-20" type="curve" smooth="yes"/>
      <point x="1840" y="-20"/>
      <point x="2072" y="247"/>
      <point x="2072" y="733" type="curve" smooth="yes"/>
      <point x="2072" y="1218"/>
      <point x="1843" y="1485"/>
      <point x="1423" y="1485" type="curve" smooth="yes"/>
      <point x="1054" y="1485"/>
      <point x="836" y="1277"/>
      <point x="792" y="888" type="curve"/>
      <point x="492" y="888" type="line"/>
      <point x="492" y="1462" type="line"/>
      <point x="184" y="1462" type="line"/>
      <point x="184" y="0" type="line"/>
      <point x="492" y="0" type="line"/>
      <point x="492" y="633" type="line"/>
      <point x="787" y="633" type="line"/>
      <point x="817" y="209"/>
      <point x="1035" y="-20"/>
    </contour>
    <contour>
      <point x="1421" y="239" type="curve" smooth="yes"/>
      <point x="1324" y="239"/>
      <point x="1248" y="274"/>
      <point x="1194" y="343" type="curve" smooth="yes"/>
      <point x="1128" y="425"/>
      <point x="1094" y="556"/>
      <point x="1094" y="733" type="curve" smooth="yes"/>
      <point x="1094" y="942"/>
      <point x="1142" y="1088"/>
      <point x="1234" y="1165" type="curve" smooth="yes"/>
      <point x="1284" y="1207"/>
      <point x="1347" y="1229"/>
      <point x="1423" y="1229" type="curve" smooth="yes"/>
      <point x="1491" y="1229"/>
      <point x="1548" y="1211"/>
      <point x="1594" y="1178" type="curve" smooth="yes"/>
      <point x="1695" y="1105"/>
      <point x="1748" y="955"/>
      <point x="1748" y="733" type="curve" smooth="yes"/>
      <point x="1748" y="543"/>
      <point x="1709" y="407"/>
      <point x="1633" y="328" type="curve" smooth="yes"/>
      <point x="1581" y="268"/>
      <point x="1510" y="239"/>
    </contour>
    <contour>
      <point x="1098" y="1462" type="move" name="top"/>
    </contour>
  </outline>
</glyph>
<glyph name="ge-cy" format="1">
  <advance width="979"/>
  <unicode hex="0433"/>
  <note>
    afii10068
  </note>
  <outline>
    <contour>
      <point x="160" y="0" type="line"/>
      <point x="463" y="0" type="line"/>
      <point x="463" y="890" type="line"/>
      <point x="941" y="890" type="line"/>
      <point x="941" y="1119" type="line"/>
      <point x="160" y="1119" type="line"/>
    </contour>
    <contour>
      <point x="968" y="0" type="move" name="bottomright"/>
    </contour>
    <contour>
      <point x="541" y="1119" type="move" name="top"/>
    </contour>
  </outline>
</glyph>
<glyph name="yeru-cy" format="1">
  <advance width="1882"/>
  <unicode hex="044B"/>
  <note>
    afii10093
  </note>
  <outline>
    <component base="softsign-cy"/>
    <component base="idotless" xOffset="1257"/>
    <contour>
      <point x="843.2" y="1119.2" type="move" name="top"/>
    </contour>
  </outline>
</glyph>
<glyph name="lje-cy" format="1">
  <advance width="1819"/>
  <unicode hex="0459"/>
  <note>
    afii10106
  </note>
  <outline>
    <contour>
      <point x="143" y="-17" type="curve" smooth="yes"/>
      <point x="327" y="-17"/>
      <point x="430" y="88"/>
      <point x="494" y="332" type="curve" smooth="yes"/>
      <point x="526" y="453"/>
      <point x="553" y="639"/>
      <point x="574" y="888" type="curve"/>
      <point x="807" y="888" type="line"/>
      <point x="807" y="0" type="line"/>
      <point x="1245" y="0" type="line" smooth="yes"/>
      <point x="1570" y="0"/>
      <point x="1730" y="113"/>
      <point x="1730" y="360" type="curve" smooth="yes"/>
      <point x="1730" y="595"/>
      <point x="1579" y="694"/>
      <point x="1222" y="694" type="curve" smooth="yes"/>
      <point x="1110" y="694" type="line"/>
      <point x="1110" y="1119" type="line"/>
      <point x="301" y="1119" type="line"/>
      <point x="289" y="944"/>
      <point x="275" y="798"/>
      <point x="260" y="680" type="curve" smooth="yes"/>
      <point x="239" y="504"/>
      <point x="215" y="386"/>
      <point x="183" y="325" type="curve" smooth="yes"/>
      <point x="156" y="257"/>
      <point x="121" y="223"/>
      <point x="77" y="223" type="curve" smooth="yes"/>
      <point x="45" y="223"/>
      <point x="20" y="227"/>
      <point x="0" y="237" type="curve"/>
      <point x="0" y="6" type="line"/>
      <point x="40" y="-9"/>
      <point x="87" y="-17"/>
    </contour>
    <contour>
      <point x="1110" y="207" type="line"/>
      <point x="1110" y="486" type="line"/>
      <point x="1233" y="486" type="line" smooth="yes"/>
      <point x="1364" y="486"/>
      <point x="1425" y="456"/>
      <point x="1425" y="349" type="curve" smooth="yes"/>
      <point x="1425" y="254"/>
      <point x="1364" y="207"/>
      <point x="1238" y="207" type="curve" smooth="yes"/>
    </contour>
  </outline>
</glyph>
<glyph name="yat-cy" format="1">
  <advance width="1356"/>
  <unicode hex="0463"/>
  <note>
    afii10194
  </note>
  <outline>
    <contour>
      <point x="243" y="0" type="line"/>
      <point x="768" y="0" type="line" smooth="yes"/>
      <point x="1096" y="0"/>
      <point x="1265" y="120"/>
      <point x="1265" y="358" type="curve" smooth="yes"/>
      <point x="1265" y="580"/>
      <point x="1104" y="691"/>
      <point x="758" y="691" type="curve" smooth="yes"/>
      <point x="546" y="691" type="line"/>
      <point x="546" y="916" type="line"/>
      <point x="929" y="916" type="line"/>
      <point x="929" y="1119" type="line"/>
      <point x="546" y="1119" type="line"/>
      <point x="546" y="1348" type="line"/>
      <point x="243" y="1348" type="line"/>
      <point x="243" y="1119" type="line"/>
      <point x="0" y="1119" type="line"/>
      <point x="0" y="916" type="line"/>
      <point x="243" y="916" type="line"/>
    </contour>
    <contour>
      <point x="546" y="207" type="line"/>
      <point x="546" y="483" type="line"/>
      <point x="753" y="483" type="line" smooth="yes"/>
      <point x="902" y="483"/>
      <point x="960" y="440"/>
      <point x="960" y="347" type="curve" smooth="yes"/>
      <point x="960" y="255"/>
      <point x="884" y="207"/>
      <point x="760" y="207" type="curve" smooth="yes"/>
    </contour>
  </outline>
</glyph>
<glyph name="Ksi-cy" format="1">
  <advance width="1294"/>
  <unicode hex="046E"/>
  <note>
    uni046E
  </note>
  <outline>
    <contour>
      <point x="1027" y="-460" type="curve"/>
      <point x="1027" y="-232" type="line"/>
      <point x="1000" y="-209"/>
      <point x="939" y="-191"/>
      <point x="842" y="-191" type="curve" smooth="yes"/>
      <point x="804" y="-191"/>
      <point x="750" y="-193"/>
      <point x="688" y="-197" type="curve" smooth="yes"/>
      <point x="626" y="-201"/>
      <point x="558" y="-203"/>
      <point x="509" y="-203" type="curve" smooth="yes"/>
      <point x="409" y="-203"/>
      <point x="352" y="-184"/>
      <point x="352" y="-115" type="curve" smooth="yes"/>
      <point x="352" y="-28"/>
      <point x="456" y="-17"/>
      <point x="601" y="-9" type="curve" smooth="yes"/>
      <point x="997" y="13"/>
      <point x="1182" y="148"/>
      <point x="1182" y="409" type="curve" smooth="yes"/>
      <point x="1182" y="621"/>
      <point x="1054" y="734"/>
      <point x="802" y="763" type="curve"/>
      <point x="802" y="771" type="line"/>
      <point x="1026" y="811"/>
      <point x="1134" y="935"/>
      <point x="1134" y="1113" type="curve" smooth="yes"/>
      <point x="1134" y="1294"/>
      <point x="1014" y="1413"/>
      <point x="814" y="1459" type="curve"/>
      <point x="886" y="1568"/>
      <point x="941" y="1617"/>
      <point x="1018" y="1617" type="curve" smooth="yes"/>
      <point x="1039" y="1617"/>
      <point x="1069" y="1613"/>
      <point x="1086" y="1605" type="curve"/>
      <point x="1086" y="1761" type="line"/>
      <point x="1060" y="1772"/>
      <point x="1018" y="1776"/>
      <point x="972" y="1776" type="curve" smooth="yes"/>
      <point x="841" y="1776"/>
      <point x="776" y="1735"/>
      <point x="638" y="1550" type="curve"/>
      <point x="568" y="1630"/>
      <point x="498" y="1696"/>
      <point x="428" y="1747" type="curve"/>
      <point x="222" y="1747" type="line"/>
      <point x="222" y="1723" type="line"/>
      <point x="295" y="1652"/>
      <point x="372" y="1568"/>
      <point x="452" y="1471" type="curve"/>
      <point x="309" y="1453"/>
      <point x="188" y="1405"/>
      <point x="75" y="1329" type="curve"/>
      <point x="209" y="1115" type="line"/>
      <point x="323" y="1193"/>
      <point x="437" y="1228"/>
      <point x="578" y="1228" type="curve" smooth="yes"/>
      <point x="737" y="1228"/>
      <point x="823" y="1170"/>
      <point x="823" y="1064" type="curve" smooth="yes"/>
      <point x="823" y="929"/>
      <point x="688" y="887"/>
      <point x="484" y="887" type="curve" smooth="yes"/>
      <point x="309" y="887" type="line"/>
      <point x="309" y="635" type="line"/>
      <point x="494" y="635" type="line" smooth="yes"/>
      <point x="703" y="635"/>
      <point x="862" y="586"/>
      <point x="862" y="440" type="curve" smooth="yes"/>
      <point x="862" y="289"/>
      <point x="728" y="257"/>
      <point x="519" y="248" type="curve" smooth="yes"/>
      <point x="275" y="238"/>
      <point x="41" y="171"/>
      <point x="41" y="-99" type="curve" smooth="yes"/>
      <point x="41" y="-317"/>
      <point x="188" y="-433"/>
      <point x="424" y="-433" type="curve" smooth="yes"/>
      <point x="494" y="-433"/>
      <point x="565" y="-431"/>
      <point x="635" y="-428" type="curve" smooth="yes"/>
      <point x="701" y="-425"/>
      <point x="767" y="-424"/>
      <point x="831" y="-424" type="curve" smooth="yes"/>
      <point x="927" y="-424"/>
      <point x="987" y="-432"/>
    </contour>
  </outline>
</glyph>
<glyph name="ksi-cy" format="1">
  <advance width="1137"/>
  <unicode hex="046F"/>
  <note>
    uni046F
  </note>
  <outline>
    <contour>
      <point x="933" y="-451" type="curve"/>
      <point x="933" y="-222" type="line"/>
      <point x="891" y="-195"/>
      <point x="838" y="-183"/>
      <point x="772" y="-183" type="curve" smooth="yes"/>
      <point x="639" y="-185"/>
      <point x="555" y="-194"/>
      <point x="464" y="-194" type="curve" smooth="yes"/>
      <point x="370" y="-194"/>
      <point x="317" y="-175"/>
      <point x="317" y="-111" type="curve" smooth="yes"/>
      <point x="317" y="-81"/>
      <point x="332" y="-58"/>
      <point x="363" y="-43" type="curve" smooth="yes"/>
      <point x="394" y="-29"/>
      <point x="450" y="-19"/>
      <point x="533" y="-13" type="curve" smooth="yes"/>
      <point x="868" y="4"/>
      <point x="1019" y="102"/>
      <point x="1019" y="323" type="curve" smooth="yes"/>
      <point x="1019" y="469"/>
      <point x="934" y="560"/>
      <point x="773" y="586" type="curve"/>
      <point x="773" y="595" type="line"/>
      <point x="899" y="628"/>
      <point x="975" y="718"/>
      <point x="975" y="841" type="curve" smooth="yes"/>
      <point x="975" y="979"/>
      <point x="895" y="1069"/>
      <point x="738" y="1112" type="curve"/>
      <point x="790" y="1187"/>
      <point x="845" y="1228"/>
      <point x="899" y="1228" type="curve" smooth="yes"/>
      <point x="936" y="1228"/>
      <point x="966" y="1224"/>
      <point x="987" y="1215" type="curve"/>
      <point x="987" y="1364" type="line"/>
      <point x="953" y="1376"/>
      <point x="913" y="1381"/>
      <point x="867" y="1381" type="curve" smooth="yes"/>
      <point x="821" y="1381"/>
      <point x="782" y="1374"/>
      <point x="742" y="1354" type="curve" smooth="yes"/>
      <point x="682" y="1323"/>
      <point x="623" y="1264"/>
      <point x="540" y="1155" type="curve"/>
      <point x="476" y="1225"/>
      <point x="405" y="1291"/>
      <point x="325" y="1352" type="curve"/>
      <point x="132" y="1352" type="line"/>
      <point x="132" y="1328" type="line"/>
      <point x="196" y="1262"/>
      <point x="244" y="1207"/>
      <point x="317" y="1120" type="curve"/>
      <point x="252" y="1107"/>
      <point x="183" y="1086"/>
      <point x="112" y="1056" type="curve"/>
      <point x="201" y="847" type="line"/>
      <point x="306" y="894"/>
      <point x="402" y="918"/>
      <point x="502" y="918" type="curve" smooth="yes"/>
      <point x="622" y="918"/>
      <point x="685" y="879"/>
      <point x="685" y="806" type="curve" smooth="yes"/>
      <point x="685" y="756"/>
      <point x="659" y="723"/>
      <point x="605" y="705" type="curve" smooth="yes"/>
      <point x="569" y="693"/>
      <point x="515" y="686"/>
      <point x="443" y="686" type="curve" smooth="yes"/>
      <point x="317" y="686" type="line"/>
      <point x="317" y="482" type="line"/>
      <point x="466" y="482" type="line" smooth="yes"/>
      <point x="543" y="482"/>
      <point x="600" y="476"/>
      <point x="636" y="463" type="curve" smooth="yes"/>
      <point x="687" y="446"/>
      <point x="714" y="410"/>
      <point x="714" y="355" type="curve" smooth="yes"/>
      <point x="714" y="266"/>
      <point x="630" y="220"/>
      <point x="460" y="210" type="curve" smooth="yes"/>
      <point x="176" y="194"/>
      <point x="31" y="90"/>
      <point x="31" y="-112" type="curve" smooth="yes"/>
      <point x="31" y="-313"/>
      <point x="174" y="-420"/>
      <point x="441" y="-420" type="curve" smooth="yes"/>
      <point x="491" y="-420"/>
      <point x="724" y="-409"/>
      <point x="773" y="-409" type="curve" smooth="yes"/>
      <point x="840" y="-409"/>
      <point x="903" y="-427"/>
    </contour>
  </outline>
</glyph>
<glyph name="uni047B" format="1">
  <advance width="1391"/>
  <unicode hex="047B"/>
  <note>
    uni047B
  </note>
  <outline>
    <contour>
      <point x="683" y="-108" type="curve" smooth="yes"/>
      <point x="750" y="-108"/>
      <point x="796" y="-68"/>
      <point x="808" y="-4" type="curve"/>
      <point x="1105" y="38"/>
      <point x="1278" y="238"/>
      <point x="1278" y="562" type="curve" smooth="yes"/>
      <point x="1278" y="871"/>
      <point x="1105" y="1078"/>
      <point x="809" y="1124" type="curve"/>
      <point x="797" y="1187"/>
      <point x="748" y="1229"/>
      <point x="685" y="1229" type="curve" smooth="yes"/>
      <point x="617" y="1229"/>
      <point x="570" y="1189"/>
      <point x="559" y="1124" type="curve"/>
      <point x="261" y="1082"/>
      <point x="92" y="880"/>
      <point x="92" y="562" type="curve" smooth="yes"/>
      <point x="92" y="250"/>
      <point x="265" y="41"/>
      <point x="560" y="-4" type="curve"/>
      <point x="574" y="-68"/>
      <point x="619" y="-108"/>
    </contour>
    <contour>
      <point x="559" y="227" type="curve"/>
      <point x="457" y="271"/>
      <point x="401" y="386"/>
      <point x="401" y="562" type="curve" smooth="yes"/>
      <point x="401" y="732"/>
      <point x="456" y="846"/>
      <point x="560" y="891" type="curve"/>
      <point x="574" y="830"/>
      <point x="620" y="789"/>
      <point x="683" y="789" type="curve" smooth="yes"/>
      <point x="750" y="789"/>
      <point x="796" y="829"/>
      <point x="808" y="892" type="curve"/>
      <point x="912" y="847"/>
      <point x="968" y="733"/>
      <point x="968" y="562" type="curve" smooth="yes"/>
      <point x="968" y="389"/>
      <point x="912" y="273"/>
      <point x="808" y="227" type="curve"/>
      <point x="796" y="290"/>
      <point x="748" y="332"/>
      <point x="685" y="332" type="curve" smooth="yes"/>
      <point x="617" y="332"/>
      <point x="571" y="292"/>
    </contour>
  </outline>
</glyph>
<glyph name="titlocomb-cy" format="1">
  <advance width="1141"/>
  <unicode hex="0483"/>
  <note>
    uni0483
  </note>
  <outline>
    <contour>
      <point x="299" y="1155" type="curve" smooth="yes"/>
      <point x="367" y="1155"/>
      <point x="406" y="1178"/>
      <point x="416" y="1243" type="curve"/>
      <point x="848" y="1243" type="line" smooth="yes"/>
      <point x="948" y="1243"/>
      <point x="995" y="1289"/>
      <point x="995" y="1388" type="curve" smooth="yes"/>
      <point x="995" y="1477"/>
      <point x="955" y="1518"/>
      <point x="875" y="1518" type="curve" smooth="yes"/>
      <point x="810" y="1518"/>
      <point x="766" y="1490"/>
      <point x="759" y="1431" type="curve"/>
      <point x="326" y="1431" type="line" smooth="yes"/>
      <point x="229" y="1431"/>
      <point x="180" y="1386"/>
      <point x="180" y="1288" type="curve" smooth="yes"/>
      <point x="180" y="1209"/>
      <point x="227" y="1155"/>
    </contour>
  </outline>
</glyph>
<glyph name="palatalizationcomb-cy" format="1">
  <advance width="1182"/>
  <unicode hex="0484"/>
  <note>
    uni0484
  </note>
  <outline>
    <contour>
      <point x="856" y="1238" type="line"/>
      <point x="1036" y="1238" type="line"/>
      <point x="1036" y="1253"/>
      <point x="1036" y="1268"/>
      <point x="1036" y="1283" type="curve" smooth="yes"/>
      <point x="1036" y="1476"/>
      <point x="946" y="1561"/>
      <point x="777" y="1561" type="curve" smooth="yes"/>
      <point x="690" y="1561"/>
      <point x="617" y="1533"/>
      <point x="536" y="1502" type="curve" smooth="yes"/>
      <point x="407" y="1452"/>
      <point x="338" y="1438"/>
      <point x="244" y="1438" type="curve"/>
      <point x="244" y="1244" type="line"/>
      <point x="260" y="1244" type="line" smooth="yes"/>
      <point x="344" y="1244"/>
      <point x="417" y="1254"/>
      <point x="486" y="1273" type="curve" smooth="yes"/>
      <point x="558" y="1293"/>
      <point x="606" y="1311"/>
      <point x="661" y="1333" type="curve" smooth="yes"/>
      <point x="697" y="1347"/>
      <point x="729" y="1354"/>
      <point x="753" y="1354" type="curve" smooth="yes"/>
      <point x="819" y="1354"/>
      <point x="856" y="1317"/>
      <point x="856" y="1243" type="curve" smooth="yes"/>
    </contour>
  </outline>
</glyph>
<glyph name="dasiapneumatacomb-cy" format="1">
  <advance width="1182"/>
  <unicode hex="0485"/>
  <note>
    uni0485
  </note>
  <outline>
    <contour>
      <point x="770" y="1218" type="curve"/>
      <point x="770" y="1307" type="line"/>
      <point x="698" y="1317"/>
      <point x="651" y="1351"/>
      <point x="651" y="1396" type="curve" smooth="yes"/>
      <point x="651" y="1428"/>
      <point x="671" y="1443"/>
      <point x="712" y="1454" type="curve" smooth="yes"/>
      <point x="751" y="1464"/>
      <point x="773" y="1485"/>
      <point x="773" y="1522" type="curve" smooth="yes"/>
      <point x="773" y="1587"/>
      <point x="715" y="1630"/>
      <point x="621" y="1630" type="curve" smooth="yes"/>
      <point x="518" y="1630"/>
      <point x="461" y="1561"/>
      <point x="461" y="1462" type="curve" smooth="yes"/>
      <point x="461" y="1317"/>
      <point x="575" y="1230"/>
    </contour>
  </outline>
</glyph>
<glyph name="psilipneumatacomb-cy" format="1">
  <advance width="1182"/>
  <unicode hex="0486"/>
  <note>
    uni0486
  </note>
  <outline>
    <contour>
      <point x="463" y="1218" type="line"/>
      <point x="658" y="1230"/>
      <point x="772" y="1318"/>
      <point x="772" y="1462" type="curve" smooth="yes"/>
      <point x="772" y="1566"/>
      <point x="712" y="1630"/>
      <point x="607" y="1630" type="curve" smooth="yes"/>
      <point x="520" y="1630"/>
      <point x="459" y="1587"/>
      <point x="459" y="1523" type="curve" smooth="yes"/>
      <point x="459" y="1477"/>
      <point x="489" y="1464"/>
      <point x="520" y="1454" type="curve" smooth="yes"/>
      <point x="552" y="1445"/>
      <point x="580" y="1433"/>
      <point x="580" y="1398" type="curve" smooth="yes"/>
      <point x="580" y="1356"/>
      <point x="542" y="1317"/>
      <point x="463" y="1307" type="curve"/>
    </contour>
  </outline>
</glyph>
<glyph name="Ertick-cy" format="1">
  <advance width="1286"/>
  <unicode hex="048E"/>
  <note>
    uni048E
  </note>
  <outline>
    <contour>
      <point x="988.6" y="358" type="line"/>
      <point x="1135.3" y="462.8" type="line"/>
      <point x="748.4" y="1018.3" type="line"/>
      <point x="601.4" y="912.7" type="line"/>
    </contour>
    <component base="P"/>
  </outline>
</glyph>
<glyph name="ghestroke-cy" format="1">
  <advance width="1006"/>
  <unicode hex="0493"/>
  <note>
    uni0493
  </note>
  <outline>
    <contour>
      <point x="156" y="0" type="line"/>
      <point x="459" y="0" type="line"/>
      <point x="459" y="420" type="line"/>
      <point x="766" y="420" type="line"/>
      <point x="766" y="649" type="line"/>
      <point x="459" y="649" type="line"/>
      <point x="459" y="890" type="line"/>
      <point x="915" y="890" type="line"/>
      <point x="915" y="1119" type="line"/>
      <point x="156" y="1119" type="line"/>
      <point x="156" y="649" type="line"/>
      <point x="4" y="649" type="line"/>
      <point x="4" y="420" type="line"/>
      <point x="156" y="420" type="line"/>
    </contour>
  </outline>
</glyph>
<glyph name="Zhedescender-cy" format="1">
  <advance width="2107"/>
  <unicode hex="0496"/>
  <note>
    uni0496
  </note>
  <outline>
    <contour>
      <point x="1760" y="-429" type="line"/>
      <point x="2060" y="-429" type="line"/>
      <point x="2060" y="255" type="line"/>
      <point x="1800" y="255" type="line"/>
      <point x="1449" y="760" type="line"/>
      <point x="1928" y="1462" type="line"/>
      <point x="1592" y="1462" type="line"/>
      <point x="1130" y="754" type="line"/>
      <point x="1130" y="1462" type="line"/>
      <point x="832" y="1462" type="line"/>
      <point x="832" y="754" type="line"/>
      <point x="372" y="1462" type="line"/>
      <point x="36" y="1462" type="line"/>
      <point x="512" y="758" type="line"/>
      <point x="0" y="0" type="line"/>
      <point x="346" y="0" type="line"/>
      <point x="832" y="741" type="line"/>
      <point x="832" y="0" type="line"/>
      <point x="1130" y="0" type="line"/>
      <point x="1130" y="741" type="line"/>
      <point x="1616" y="0" type="line"/>
      <point x="1760" y="0" type="line"/>
    </contour>
  </outline>
</glyph>
<glyph name="Kaverticalstroke-cy" format="1">
  <advance width="1360"/>
  <unicode hex="049C"/>
  <note>
    uni049C
  </note>
  <outline>
    <contour>
      <point x="184" y="0" type="line"/>
      <point x="492" y="0" type="line"/>
      <point x="492" y="522" type="line"/>
      <point x="620" y="616" type="line"/>
      <point x="620" y="179" type="line"/>
      <point x="757" y="179" type="line"/>
      <point x="757" y="459" type="line"/>
      <point x="1087" y="0" type="line"/>
      <point x="1445" y="0" type="line"/>
      <point x="773" y="905" type="line"/>
      <point x="769" y="674" type="line"/>
      <point x="1419" y="1462" type="line"/>
      <point x="1070" y="1462" type="line"/>
      <point x="757" y="1079" type="line"/>
      <point x="757" y="1335" type="line"/>
      <point x="620" y="1335" type="line"/>
      <point x="620" y="895" type="line"/>
      <point x="492" y="738" type="line"/>
      <point x="492" y="1462" type="line"/>
      <point x="184" y="1462" type="line"/>
    </contour>
  </outline>
</glyph>
<glyph name="Cheverticalstroke-cy" format="1">
  <advance width="1491"/>
  <unicode hex="04B8"/>
  <note>
    uni04B8
  </note>
  <outline>
    <contour>
      <point x="998" y="0" type="line"/>
      <point x="1307" y="0" type="line"/>
      <point x="1307" y="1462" type="line"/>
      <point x="998" y="1462" type="line"/>
      <point x="998" y="808" type="line"/>
      <point x="905" y="773"/>
      <point x="841" y="756"/>
      <point x="775" y="745" type="curve"/>
      <point x="775" y="1068" type="line"/>
      <point x="638" y="1068" type="line"/>
      <point x="638" y="607" type="line"/>
      <point x="698" y="736" type="line"/>
      <point x="495" y="717"/>
      <point x="418" y="789"/>
      <point x="418" y="951" type="curve" smooth="yes"/>
      <point x="418" y="1462" type="line"/>
      <point x="109" y="1462" type="line"/>
      <point x="109" y="860" type="line" smooth="yes"/>
      <point x="109" y="613"/>
      <point x="268" y="477"/>
      <point x="544" y="477" type="curve" smooth="yes"/>
      <point x="574" y="477"/>
      <point x="605" y="478"/>
      <point x="638" y="481" type="curve"/>
      <point x="638" y="164" type="line"/>
      <point x="775" y="164" type="line"/>
      <point x="775" y="504" type="line"/>
      <point x="856" y="522"/>
      <point x="930" y="544"/>
      <point x="998" y="569" type="curve"/>
    </contour>
  </outline>
</glyph>
<glyph name="cheverticalstroke-cy" format="1">
  <advance width="1343"/>
  <unicode hex="04B9"/>
  <note>
    uni04B9
  </note>
  <outline>
    <contour>
      <point x="911" y="0" type="line"/>
      <point x="1215" y="0" type="line"/>
      <point x="1215" y="1119" type="line"/>
      <point x="911" y="1119" type="line"/>
      <point x="911" y="651" type="line"/>
      <point x="857" y="618"/>
      <point x="799" y="597"/>
      <point x="734" y="585" type="curve"/>
      <point x="734" y="811" type="line"/>
      <point x="601" y="811" type="line"/>
      <point x="601" y="426" type="line"/>
      <point x="703" y="572" type="line"/>
      <point x="598" y="572" type="line"/>
      <point x="477" y="572"/>
      <point x="426" y="616"/>
      <point x="426" y="731" type="curve" smooth="yes"/>
      <point x="426" y="1119" type="line"/>
      <point x="123" y="1119" type="line"/>
      <point x="123" y="714" type="line" smooth="yes"/>
      <point x="123" y="463"/>
      <point x="252" y="341"/>
      <point x="519" y="341" type="curve" smooth="yes"/>
      <point x="545" y="341"/>
      <point x="573" y="343"/>
      <point x="601" y="346" type="curve"/>
      <point x="601" y="128" type="line"/>
      <point x="734" y="128" type="line"/>
      <point x="734" y="370" type="line"/>
      <point x="792" y="384"/>
      <point x="851" y="408"/>
      <point x="911" y="443" type="curve"/>
    </contour>
  </outline>
</glyph>
<glyph name="Chedescenderabkhasian-cy" format="1">
  <advance width="1942"/>
  <unicode hex="04BE"/>
  <note>
    uni04BE
  </note>
  <outline>
    <contour>
      <point x="939.7" y="-429.2" type="line"/>
      <point x="1238.9" y="-429.2" type="line"/>
      <point x="1238.9" y="4.4" type="line"/>
      <point x="939.7" y="11.2" type="line"/>
    </contour>
    <component base="Cheabkhasian-cy"/>
  </outline>
</glyph>
<glyph name="emtail-cy" format="1">
  <advance width="1896"/>
  <unicode hex="04CE"/>
  <note>
    uni04CE
  </note>
  <outline>
    <contour>
      <point x="1349" y="-402" type="line"/>
      <point x="1638" y="-402" type="line"/>
      <point x="1792" y="219" type="line"/>
      <point x="1565" y="219" type="line"/>
      <point x="1565" y="1119" type="line"/>
      <point x="1143" y="1119" type="line"/>
      <point x="961" y="645" type="line"/>
      <point x="917" y="527"/>
      <point x="881" y="389"/>
      <point x="864" y="296" type="curve"/>
      <point x="862" y="296" type="line"/>
      <point x="840" y="432"/>
      <point x="804" y="565"/>
      <point x="754" y="694" type="curve" smooth="yes"/>
      <point x="588" y="1119" type="line"/>
      <point x="160" y="1119" type="line"/>
      <point x="160" y="0" type="line"/>
      <point x="447" y="0" type="line"/>
      <point x="447" y="655" type="line" smooth="yes"/>
      <point x="447" y="736"/>
      <point x="447" y="816"/>
      <point x="447" y="897" type="curve"/>
      <point x="446" y="897" type="line"/>
      <point x="496" y="708"/>
      <point x="531" y="590"/>
      <point x="566" y="497" type="curve" smooth="yes"/>
      <point x="756" y="0" type="line"/>
      <point x="969" y="0" type="line"/>
      <point x="1165" y="517" type="line" smooth="yes"/>
      <point x="1211" y="644"/>
      <point x="1240" y="740"/>
      <point x="1277" y="896" type="curve"/>
      <point x="1278" y="896" type="line"/>
      <point x="1277" y="821"/>
      <point x="1277" y="747"/>
      <point x="1277" y="672" type="curve"/>
      <point x="1277" y="0" type="line"/>
      <point x="1490" y="0" type="line"/>
    </contour>
  </outline>
</glyph>
<glyph name="obarred-cy" format="1">
  <advance width="1268"/>
  <unicode hex="04E9"/>
  <note>
    uni04E9
  </note>
  <outline>
    <component base="fita-cy"/>
    <contour>
      <point x="632" y="1119.2" type="move" name="top"/>
    </contour>
  </outline>
</glyph>
<glyph name="Komidzje-cy" format="1">
  <advance width="1436"/>
  <unicode hex="0506"/>
  <note>
    uni0506
  </note>
  <outline>
    <contour>
      <point x="1028" y="-429" type="line"/>
      <point x="1326" y="-429" type="line"/>
      <point x="1326" y="255" type="line"/>
      <point x="1076" y="255" type="line"/>
      <point x="1076" y="434" type="line" smooth="yes"/>
      <point x="1076" y="623"/>
      <point x="951" y="733"/>
      <point x="707" y="763" type="curve"/>
      <point x="707" y="771" type="line"/>
      <point x="927" y="812"/>
      <point x="1039" y="929"/>
      <point x="1039" y="1120" type="curve" smooth="yes"/>
      <point x="1039" y="1339"/>
      <point x="850" y="1483"/>
      <point x="559" y="1483" type="curve" smooth="yes"/>
      <point x="341" y="1483"/>
      <point x="180" y="1432"/>
      <point x="25" y="1322" type="curve"/>
      <point x="158" y="1108" type="line"/>
      <point x="265" y="1188"/>
      <point x="383" y="1228"/>
      <point x="501" y="1228" type="curve" smooth="yes"/>
      <point x="645" y="1228"/>
      <point x="729" y="1170"/>
      <point x="729" y="1069" type="curve" smooth="yes"/>
      <point x="729" y="936"/>
      <point x="614" y="887"/>
      <point x="427" y="887" type="curve" smooth="yes"/>
      <point x="227" y="887" type="line"/>
      <point x="227" y="635" type="line"/>
      <point x="432" y="635" type="line" smooth="yes"/>
      <point x="671" y="635"/>
      <point x="767" y="566"/>
      <point x="767" y="403" type="curve" smooth="yes"/>
      <point x="767" y="0" type="line"/>
      <point x="1028" y="0" type="line"/>
    </contour>
  </outline>
</glyph>
<glyph name="Komitje-cy" format="1">
  <advance width="1552"/>
  <unicode hex="050E"/>
  <note>
    uni050E
  </note>
  <outline>
    <contour>
      <point x="909" y="-20" type="curve" smooth="yes"/>
      <point x="1228" y="-20"/>
      <point x="1376" y="124"/>
      <point x="1376" y="431" type="curve" smooth="yes"/>
      <point x="1376" y="848" type="line"/>
      <point x="1067" y="848" type="line"/>
      <point x="1067" y="446" type="line" smooth="yes"/>
      <point x="1067" y="301"/>
      <point x="1022" y="236"/>
      <point x="909" y="236" type="curve" smooth="yes"/>
      <point x="785" y="236"/>
      <point x="742" y="288"/>
      <point x="742" y="452" type="curve" smooth="yes"/>
      <point x="742" y="1207" type="line"/>
      <point x="1133" y="1207" type="line"/>
      <point x="1133" y="1462" type="line"/>
      <point x="41" y="1462" type="line"/>
      <point x="41" y="1207" type="line"/>
      <point x="433" y="1207" type="line"/>
      <point x="433" y="419" type="line" smooth="yes"/>
      <point x="433" y="110"/>
      <point x="576" y="-20"/>
    </contour>
  </outline>
</glyph>
<glyph name="sheva-hb" format="1">
  <advance width="0"/>
  <unicode hex="05B0"/>
  <note>
    afii57799
  </note>
  <outline>
    <contour>
      <point x="621" y="-261" type="curve" smooth="yes"/>
      <point x="675" y="-261"/>
      <point x="705" y="-230"/>
      <point x="705" y="-178" type="curve" smooth="yes"/>
      <point x="705" y="-126"/>
      <point x="675" y="-95"/>
      <point x="621" y="-95" type="curve" smooth="yes"/>
      <point x="568" y="-95"/>
      <point x="537" y="-126"/>
      <point x="537" y="-178" type="curve" smooth="yes"/>
      <point x="537" y="-230"/>
      <point x="568" y="-261"/>
    </contour>
    <contour>
      <point x="621" y="-509" type="curve" smooth="yes"/>
      <point x="675" y="-509"/>
      <point x="705" y="-477"/>
      <point x="705" y="-425" type="curve" smooth="yes"/>
      <point x="705" y="-374"/>
      <point x="675" y="-342"/>
      <point x="621" y="-342" type="curve" smooth="yes"/>
      <point x="568" y="-342"/>
      <point x="537" y="-374"/>
      <point x="537" y="-426" type="curve" smooth="yes"/>
      <point x="537" y="-478"/>
      <point x="568" y="-509"/>
    </contour>
    <contour>
      <point x="622" y="-75" type="move" name="_bottom"/>
    </contour>
  </outline>
</glyph>
<glyph name="hatafsegol-hb" format="1">
  <advance width="0"/>
  <unicode hex="05B1"/>
  <note>
    afii57801
  </note>
  <outline>
    <contour>
      <point x="369" y="-271" type="curve" smooth="yes"/>
      <point x="421" y="-271"/>
      <point x="453" y="-241"/>
      <point x="453" y="-189" type="curve" smooth="yes"/>
      <point x="453" y="-136"/>
      <point x="421" y="-105"/>
      <point x="369" y="-105" type="curve" smooth="yes"/>
      <point x="317" y="-105"/>
      <point x="285" y="-134"/>
      <point x="285" y="-189" type="curve" smooth="yes"/>
      <point x="285" y="-241"/>
      <point x="317" y="-271"/>
    </contour>
    <contour>
      <point x="662" y="-271" type="curve" smooth="yes"/>
      <point x="716" y="-271"/>
      <point x="748" y="-241"/>
      <point x="748" y="-189" type="curve" smooth="yes"/>
      <point x="748" y="-137"/>
      <point x="716" y="-105"/>
      <point x="663" y="-105" type="curve" smooth="yes"/>
      <point x="610" y="-105"/>
      <point x="579" y="-135"/>
      <point x="579" y="-189" type="curve" smooth="yes"/>
      <point x="579" y="-242"/>
      <point x="608" y="-271"/>
    </contour>
    <contour>
      <point x="518" y="-519" type="curve" smooth="yes"/>
      <point x="571" y="-519"/>
      <point x="602" y="-488"/>
      <point x="602" y="-435" type="curve" smooth="yes"/>
      <point x="602" y="-384"/>
      <point x="571" y="-353"/>
      <point x="518" y="-353" type="curve" smooth="yes"/>
      <point x="468" y="-353"/>
      <point x="434" y="-380"/>
      <point x="434" y="-435" type="curve" smooth="yes"/>
      <point x="434" y="-489"/>
      <point x="465" y="-519"/>
    </contour>
    <contour>
      <point x="925" y="-519" type="curve" smooth="yes"/>
      <point x="979" y="-519"/>
      <point x="1009" y="-488"/>
      <point x="1009" y="-435" type="curve" smooth="yes"/>
      <point x="1009" y="-384"/>
      <point x="979" y="-353"/>
      <point x="925" y="-353" type="curve" smooth="yes"/>
      <point x="873" y="-353"/>
      <point x="841" y="-384"/>
      <point x="841" y="-436" type="curve" smooth="yes"/>
      <point x="841" y="-489"/>
      <point x="873" y="-519"/>
    </contour>
    <contour>
      <point x="925" y="-271" type="curve" smooth="yes"/>
      <point x="979" y="-271"/>
      <point x="1009" y="-241"/>
      <point x="1009" y="-189" type="curve" smooth="yes"/>
      <point x="1009" y="-136"/>
      <point x="979" y="-105"/>
      <point x="925" y="-105" type="curve" smooth="yes"/>
      <point x="873" y="-105"/>
      <point x="841" y="-136"/>
      <point x="841" y="-189" type="curve" smooth="yes"/>
      <point x="841" y="-241"/>
      <point x="873" y="-271"/>
    </contour>
    <contour>
      <point x="648" y="-85" type="move" name="_bottom"/>
    </contour>
  </outline>
</glyph>
<glyph name="hatafpatah-hb" format="1">
  <advance width="0"/>
  <unicode hex="05B2"/>
  <note>
    afii57800
  </note>
  <outline>
    <contour>
      <point x="351" y="-238" type="line"/>
      <point x="715" y="-238" type="line"/>
      <point x="715" y="-135" type="line"/>
      <point x="351" y="-135" type="line"/>
    </contour>
    <contour>
      <point x="885" y="-519" type="curve" smooth="yes"/>
      <point x="939" y="-519"/>
      <point x="970" y="-488"/>
      <point x="970" y="-435" type="curve" smooth="yes"/>
      <point x="970" y="-384"/>
      <point x="938" y="-353"/>
      <point x="885" y="-353" type="curve" smooth="yes"/>
      <point x="836" y="-353"/>
      <point x="802" y="-380"/>
      <point x="802" y="-435" type="curve" smooth="yes"/>
      <point x="802" y="-489"/>
      <point x="833" y="-519"/>
    </contour>
    <contour>
      <point x="885" y="-271" type="curve" smooth="yes"/>
      <point x="939" y="-271"/>
      <point x="970" y="-241"/>
      <point x="970" y="-189" type="curve" smooth="yes"/>
      <point x="970" y="-136"/>
      <point x="938" y="-105"/>
      <point x="885" y="-105" type="curve" smooth="yes"/>
      <point x="836" y="-105"/>
      <point x="802" y="-132"/>
      <point x="802" y="-188" type="curve" smooth="yes"/>
      <point x="802" y="-241"/>
      <point x="833" y="-271"/>
    </contour>
    <contour>
      <point x="661" y="-85" type="move" name="_bottom"/>
    </contour>
  </outline>
</glyph>
<glyph name="hatafqamats-hb" format="1">
  <advance width="0"/>
  <unicode hex="05B3"/>
  <note>
    afii57802
  </note>
  <outline>
    <contour>
      <point x="483" y="-440" type="line"/>
      <point x="583" y="-440" type="line"/>
      <point x="583" y="-238" type="line"/>
      <point x="715" y="-238" type="line"/>
      <point x="715" y="-135" type="line"/>
      <point x="351" y="-135" type="line"/>
      <point x="351" y="-238" type="line"/>
      <point x="483" y="-238" type="line"/>
    </contour>
    <contour>
      <point x="888" y="-519" type="curve" smooth="yes"/>
      <point x="942" y="-519"/>
      <point x="973" y="-488"/>
      <point x="973" y="-435" type="curve" smooth="yes"/>
      <point x="973" y="-384"/>
      <point x="942" y="-353"/>
      <point x="888" y="-353" type="curve" smooth="yes"/>
      <point x="835" y="-353"/>
      <point x="804" y="-384"/>
      <point x="804" y="-436" type="curve" smooth="yes"/>
      <point x="804" y="-489"/>
      <point x="835" y="-519"/>
    </contour>
    <contour>
      <point x="888" y="-271" type="curve" smooth="yes"/>
      <point x="942" y="-271"/>
      <point x="973" y="-241"/>
      <point x="973" y="-189" type="curve" smooth="yes"/>
      <point x="973" y="-136"/>
      <point x="942" y="-105"/>
      <point x="888" y="-105" type="curve" smooth="yes"/>
      <point x="835" y="-105"/>
      <point x="804" y="-136"/>
      <point x="804" y="-189" type="curve" smooth="yes"/>
      <point x="804" y="-241"/>
      <point x="835" y="-271"/>
    </contour>
    <contour>
      <point x="662" y="-85" type="move" name="_bottom"/>
    </contour>
  </outline>
</glyph>
<glyph name="hiriq-hb" format="1">
  <advance width="0"/>
  <unicode hex="05B4"/>
  <note>
    afii57793
  </note>
  <outline>
    <contour>
      <point x="617" y="-268" type="curve" smooth="yes"/>
      <point x="671" y="-268"/>
      <point x="703" y="-236"/>
      <point x="703" y="-185" type="curve" smooth="yes"/>
      <point x="703" y="-134"/>
      <point x="671" y="-102"/>
      <point x="618" y="-102" type="curve" smooth="yes"/>
      <point x="565" y="-102"/>
      <point x="534" y="-132"/>
      <point x="534" y="-185" type="curve" smooth="yes"/>
      <point x="534" y="-239"/>
      <point x="563" y="-268"/>
    </contour>
    <contour>
      <point x="619" y="-82" type="move" name="_bottom"/>
    </contour>
  </outline>
</glyph>
<glyph name="tsere-hb" format="1">
  <advance width="0"/>
  <unicode hex="05B5"/>
  <note>
    afii57794
  </note>
  <outline>
    <contour>
      <point x="763" y="-255" type="curve" smooth="yes"/>
      <point x="817" y="-255"/>
      <point x="850" y="-223"/>
      <point x="850" y="-172" type="curve" smooth="yes"/>
      <point x="850" y="-120"/>
      <point x="817" y="-88"/>
      <point x="763" y="-88" type="curve" smooth="yes"/>
      <point x="710" y="-88"/>
      <point x="679" y="-118"/>
      <point x="679" y="-172" type="curve" smooth="yes"/>
      <point x="679" y="-225"/>
      <point x="710" y="-255"/>
    </contour>
    <contour>
      <point x="470" y="-255" type="curve" smooth="yes"/>
      <point x="523" y="-255"/>
      <point x="554" y="-223"/>
      <point x="554" y="-171" type="curve" smooth="yes"/>
      <point x="554" y="-120"/>
      <point x="523" y="-88"/>
      <point x="470" y="-88" type="curve" smooth="yes"/>
      <point x="421" y="-88"/>
      <point x="387" y="-115"/>
      <point x="387" y="-171" type="curve" smooth="yes"/>
      <point x="387" y="-224"/>
      <point x="417" y="-255"/>
    </contour>
    <contour>
      <point x="619" y="-68" type="move" name="_bottom"/>
    </contour>
  </outline>
</glyph>
<glyph name="segol-hb" format="1">
  <advance width="0"/>
  <unicode hex="05B6"/>
  <note>
    afii57795
  </note>
  <outline>
    <contour>
      <point x="619" y="-519" type="curve" smooth="yes"/>
      <point x="673" y="-519"/>
      <point x="703" y="-488"/>
      <point x="703" y="-435" type="curve" smooth="yes"/>
      <point x="703" y="-384"/>
      <point x="673" y="-353"/>
      <point x="619" y="-353" type="curve" smooth="yes"/>
      <point x="566" y="-353"/>
      <point x="535" y="-384"/>
      <point x="535" y="-436" type="curve" smooth="yes"/>
      <point x="535" y="-489"/>
      <point x="566" y="-519"/>
    </contour>
    <contour>
      <point x="763" y="-271" type="curve" smooth="yes"/>
      <point x="817" y="-271"/>
      <point x="850" y="-241"/>
      <point x="850" y="-189" type="curve" smooth="yes"/>
      <point x="850" y="-137"/>
      <point x="817" y="-105"/>
      <point x="763" y="-105" type="curve" smooth="yes"/>
      <point x="710" y="-105"/>
      <point x="679" y="-135"/>
      <point x="679" y="-189" type="curve" smooth="yes"/>
      <point x="679" y="-242"/>
      <point x="710" y="-271"/>
    </contour>
    <contour>
      <point x="470" y="-271" type="curve" smooth="yes"/>
      <point x="523" y="-271"/>
      <point x="554" y="-241"/>
      <point x="554" y="-189" type="curve" smooth="yes"/>
      <point x="554" y="-136"/>
      <point x="523" y="-105"/>
      <point x="470" y="-105" type="curve" smooth="yes"/>
      <point x="421" y="-105"/>
      <point x="387" y="-132"/>
      <point x="387" y="-188" type="curve" smooth="yes"/>
      <point x="387" y="-241"/>
      <point x="417" y="-271"/>
    </contour>
    <contour>
      <point x="619" y="-85" type="move" name="_bottom"/>
    </contour>
  </outline>
</glyph>
<glyph name="holam-hb" format="1">
  <advance width="0"/>
  <unicode hex="05B9"/>
  <note>
    afii57806
  </note>
  <outline>
    <contour>
      <point x="618" y="1408" type="curve" smooth="yes"/>
      <point x="673" y="1408"/>
      <point x="705" y="1439"/>
      <point x="705" y="1491" type="curve" smooth="yes"/>
      <point x="705" y="1542"/>
      <point x="673" y="1574"/>
      <point x="619" y="1574" type="curve" smooth="yes"/>
      <point x="566" y="1574"/>
      <point x="535" y="1544"/>
      <point x="535" y="1491" type="curve" smooth="yes"/>
      <point x="535" y="1437"/>
      <point x="565" y="1408"/>
    </contour>
    <contour>
      <point x="618" y="1388" type="move" name="_top"/>
    </contour>
  </outline>
</glyph>
<glyph name="holamhaser-hb" format="1">
  <advance width="0"/>
  <unicode hex="05BA"/>
  <note>
    uni05BA
  </note>
  <outline>
    <contour>
      <point x="618" y="1350" type="curve" smooth="yes"/>
      <point x="672" y="1350"/>
      <point x="704" y="1381"/>
      <point x="704" y="1433" type="curve" smooth="yes"/>
      <point x="704" y="1484"/>
      <point x="672" y="1516"/>
      <point x="618" y="1516" type="curve" smooth="yes"/>
      <point x="566" y="1516"/>
      <point x="535" y="1486"/>
      <point x="535" y="1433" type="curve" smooth="yes"/>
      <point x="535" y="1379"/>
      <point x="564" y="1350"/>
    </contour>
    <contour>
      <point x="724" y="1330" type="move" name="_topleft"/>
    </contour>
  </outline>
</glyph>
<glyph name="qubuts-hb" format="1">
  <advance width="0"/>
  <unicode hex="05BB"/>
  <note>
    afii57796
  </note>
  <outline>
    <contour>
      <point x="477" y="-279" type="curve" smooth="yes"/>
      <point x="531" y="-279"/>
      <point x="561" y="-248"/>
      <point x="561" y="-196" type="curve" smooth="yes"/>
      <point x="561" y="-144"/>
      <point x="530" y="-113"/>
      <point x="477" y="-113" type="curve" smooth="yes"/>
      <point x="428" y="-113"/>
      <point x="394" y="-140"/>
      <point x="394" y="-196" type="curve" smooth="yes"/>
      <point x="394" y="-248"/>
      <point x="424" y="-279"/>
    </contour>
    <contour>
      <point x="647" y="-442" type="curve" smooth="yes"/>
      <point x="701" y="-442"/>
      <point x="732" y="-410"/>
      <point x="732" y="-358" type="curve" smooth="yes"/>
      <point x="732" y="-307"/>
      <point x="701" y="-275"/>
      <point x="647" y="-275" type="curve" smooth="yes"/>
      <point x="595" y="-275"/>
      <point x="563" y="-307"/>
      <point x="563" y="-359" type="curve" smooth="yes"/>
      <point x="563" y="-411"/>
      <point x="595" y="-442"/>
    </contour>
    <contour>
      <point x="820" y="-604" type="curve" smooth="yes"/>
      <point x="874" y="-604"/>
      <point x="906" y="-573"/>
      <point x="906" y="-521" type="curve" smooth="yes"/>
      <point x="906" y="-469"/>
      <point x="874" y="-437"/>
      <point x="820" y="-437" type="curve" smooth="yes"/>
      <point x="767" y="-437"/>
      <point x="736" y="-467"/>
      <point x="736" y="-521" type="curve" smooth="yes"/>
      <point x="736" y="-575"/>
      <point x="766" y="-604"/>
    </contour>
    <contour>
      <point x="650" y="-93" type="move" name="_bottom"/>
    </contour>
  </outline>
</glyph>
<glyph name="dagesh-hb" format="1">
  <advance width="0"/>
  <unicode hex="05BC"/>
  <note>
    afii57807
  </note>
  <outline>
    <contour>
      <point x="617" y="546" type="curve" smooth="yes"/>
      <point x="671" y="546"/>
      <point x="703" y="577"/>
      <point x="703" y="628" type="curve" smooth="yes"/>
      <point x="703" y="680"/>
      <point x="671" y="712"/>
      <point x="618" y="712" type="curve" smooth="yes"/>
      <point x="565" y="712"/>
      <point x="534" y="682"/>
      <point x="534" y="628" type="curve" smooth="yes"/>
      <point x="534" y="575"/>
      <point x="563" y="546"/>
    </contour>
    <contour>
      <point x="619" y="629" type="move" name="_center"/>
    </contour>
  </outline>
</glyph>
<glyph name="siluqleft-hb" format="1">
  <advance width="1256"/>
  <unicode hex="05BD"/>
  <note>
    afii57839
  </note>
  <outline>
    <contour>
      <point x="576" y="-489" type="line"/>
      <point x="675" y="-489" type="line"/>
      <point x="675" y="-151" type="line"/>
      <point x="576" y="-151" type="line"/>
    </contour>
    <contour>
      <point x="626" y="-131" type="move" name="_bottom"/>
    </contour>
  </outline>
</glyph>
<glyph name="maqaf-hb" format="1">
  <advance width="659"/>
  <unicode hex="05BE"/>
  <note>
    afii57645
  </note>
  <outline>
    <contour>
      <point x="61" y="1050" type="line"/>
      <point x="599" y="1050" type="line"/>
      <point x="599" y="1293" type="line"/>
      <point x="61" y="1293" type="line"/>
    </contour>
  </outline>
</glyph>
<glyph name="shindot-hb" format="1">
  <advance width="0"/>
  <unicode hex="05C1"/>
  <note>
    afii57804
  </note>
  <outline>
    <contour>
      <point x="-1" y="1350" type="curve" smooth="yes"/>
      <point x="53" y="1350"/>
      <point x="85" y="1381"/>
      <point x="85" y="1433" type="curve" smooth="yes"/>
      <point x="85" y="1484"/>
      <point x="53" y="1516"/>
      <point x="-1" y="1516" type="curve" smooth="yes"/>
      <point x="-54" y="1516"/>
      <point x="-85" y="1486"/>
      <point x="-85" y="1433" type="curve" smooth="yes"/>
      <point x="-85" y="1379"/>
      <point x="-55" y="1350"/>
    </contour>
    <contour>
      <point x="1" y="1119" type="move" name="_topright"/>
    </contour>
  </outline>
</glyph>
<glyph name="sindot-hb" format="1">
  <advance width="0"/>
  <unicode hex="05C2"/>
  <note>
    afii57803
  </note>
  <outline>
    <contour>
      <point x="618" y="1350" type="curve" smooth="yes"/>
      <point x="673" y="1350"/>
      <point x="705" y="1381"/>
      <point x="705" y="1433" type="curve" smooth="yes"/>
      <point x="705" y="1484"/>
      <point x="673" y="1516"/>
      <point x="619" y="1516" type="curve" smooth="yes"/>
      <point x="566" y="1516"/>
      <point x="535" y="1486"/>
      <point x="535" y="1433" type="curve" smooth="yes"/>
      <point x="535" y="1379"/>
      <point x="565" y="1350"/>
    </contour>
    <contour>
      <point x="725" y="1330" type="move" name="_topleft"/>
    </contour>
  </outline>
</glyph>
<glyph name="bet-hb" format="1">
  <advance width="1182"/>
  <unicode hex="05D1"/>
  <note>
    afii57665
  </note>
  <outline>
    <contour>
      <point x="102" y="0" type="line"/>
      <point x="1133" y="0" type="line"/>
      <point x="1133" y="236" type="line"/>
      <point x="989" y="236" type="line"/>
      <point x="989" y="871" type="line" smooth="yes"/>
      <point x="989" y="997"/>
      <point x="974" y="1087"/>
      <point x="915" y="1162" type="curve" smooth="yes"/>
      <point x="882" y="1215"/>
      <point x="829" y="1252"/>
      <point x="751" y="1277" type="curve" smooth="yes"/>
      <point x="674" y="1302"/>
      <point x="583" y="1313"/>
      <point x="458" y="1313" type="curve" smooth="yes"/>
      <point x="308" y="1313"/>
      <point x="190" y="1306"/>
      <point x="102" y="1292" type="curve"/>
      <point x="102" y="1057" type="line"/>
      <point x="257" y="1070"/>
      <point x="354" y="1077"/>
      <point x="433" y="1077" type="curve" smooth="yes"/>
      <point x="482" y="1077"/>
      <point x="522" y="1070"/>
      <point x="553" y="1058" type="curve" smooth="yes"/>
      <point x="642" y="1033"/>
      <point x="687" y="972"/>
      <point x="687" y="859" type="curve" smooth="yes"/>
      <point x="687" y="236" type="line"/>
      <point x="102" y="236" type="line"/>
    </contour>
    <contour>
      <point x="594" y="0" type="move" name="bottom"/>
    </contour>
    <contour>
      <point x="43" y="0" type="move" name="bottomleft"/>
    </contour>
    <contour>
      <point x="402" y="669" type="move" name="center"/>
    </contour>
    <contour>
      <point x="594" y="1119" type="move" name="top"/>
    </contour>
    <contour>
      <point x="43" y="1119" type="move" name="topleft"/>
    </contour>
  </outline>
</glyph>
<glyph name="dalet-hb" format="1">
  <advance width="1121"/>
  <unicode hex="05D3"/>
  <note>
    afii57667
  </note>
  <outline>
    <contour>
      <point x="589" y="0" type="line"/>
      <point x="891" y="0" type="line"/>
      <point x="891" y="824" type="line" smooth="yes"/>
      <point x="891" y="897"/>
      <point x="902" y="948"/>
      <point x="932" y="987" type="curve" smooth="yes"/>
      <point x="961" y="1028"/>
      <point x="1009" y="1054"/>
      <point x="1073" y="1079" type="curve"/>
      <point x="1073" y="1293" type="line"/>
      <point x="43" y="1293" type="line"/>
      <point x="43" y="1058" type="line"/>
      <point x="696" y="1058" type="line"/>
      <point x="665" y="1035"/>
      <point x="643" y="1009"/>
      <point x="623" y="973" type="curve" smooth="yes"/>
      <point x="601" y="936"/>
      <point x="589" y="885"/>
      <point x="589" y="829" type="curve" smooth="yes"/>
    </contour>
    <contour>
      <point x="559" y="0" type="move" name="bottom"/>
    </contour>
    <contour>
      <point x="33" y="0" type="move" name="bottomleft"/>
    </contour>
    <contour>
      <point x="318" y="670" type="move" name="center"/>
    </contour>
    <contour>
      <point x="559" y="1119" type="move" name="top"/>
    </contour>
    <contour>
      <point x="33" y="1119" type="move" name="topleft"/>
    </contour>
  </outline>
</glyph>
<glyph name="he-hb" format="1">
  <advance width="1345"/>
  <unicode hex="05D4"/>
  <note>
    afii57668
  </note>
  <outline>
    <contour>
      <point x="887" y="0" type="line"/>
      <point x="1190" y="0" type="line"/>
      <point x="1190" y="859" type="line" smooth="yes"/>
      <point x="1190" y="953"/>
      <point x="1182" y="1018"/>
      <point x="1158" y="1087" type="curve" smooth="yes"/>
      <point x="1128" y="1168"/>
      <point x="1076" y="1218"/>
      <point x="996" y="1258" type="curve" smooth="yes"/>
      <point x="917" y="1296"/>
      <point x="813" y="1313"/>
      <point x="657" y="1313" type="curve" smooth="yes"/>
      <point x="567" y="1313"/>
      <point x="473" y="1310"/>
      <point x="373" y="1303" type="curve" smooth="yes"/>
      <point x="301" y="1298"/>
      <point x="230" y="1291"/>
      <point x="160" y="1281" type="curve"/>
      <point x="160" y="1045" type="line"/>
      <point x="380" y="1067"/>
      <point x="517" y="1077"/>
      <point x="628" y="1077" type="curve" smooth="yes"/>
      <point x="684" y="1077"/>
      <point x="729" y="1069"/>
      <point x="761" y="1054" type="curve" smooth="yes"/>
      <point x="845" y="1028"/>
      <point x="887" y="968"/>
      <point x="887" y="859" type="curve" smooth="yes"/>
    </contour>
    <contour>
      <point x="161" y="0" type="line"/>
      <point x="462" y="0" type="line"/>
      <point x="462" y="772" type="line"/>
      <point x="161" y="772" type="line"/>
    </contour>
    <contour>
      <point x="672" y="0" type="move" name="bottom"/>
    </contour>
    <contour>
      <point x="31" y="0" type="move" name="bottomleft"/>
    </contour>
    <contour>
      <point x="672" y="669" type="move" name="center"/>
    </contour>
    <contour>
      <point x="672" y="1119" type="move" name="top"/>
    </contour>
    <contour>
      <point x="31" y="1119" type="move" name="topleft"/>
    </contour>
  </outline>
</glyph>
<glyph name="vav-hb" format="1">
  <advance width="625"/>
  <unicode hex="05D5"/>
  <note>
    afii57669
  </note>
  <outline>
    <contour>
      <point x="160" y="0" type="line"/>
      <point x="462" y="0" type="line"/>
      <point x="462" y="1293" type="line"/>
      <point x="160" y="1293" type="line"/>
    </contour>
    <contour>
      <point x="311" y="0" type="move" name="bottom"/>
    </contour>
    <contour>
      <point x="31" y="0" type="move" name="bottomleft"/>
    </contour>
    <contour>
      <point x="12" y="671" type="move" name="center"/>
    </contour>
    <contour>
      <point x="311" y="1319" type="move" name="top"/>
    </contour>
    <contour>
      <point x="31" y="1119" type="move" name="topleft"/>
    </contour>
  </outline>
</glyph>
<glyph name="lamed-hb" format="1">
  <advance width="1115"/>
  <unicode hex="05DC"/>
  <note>
    afii57676
  </note>
  <outline>
    <contour>
      <point x="461" y="0" type="line"/>
      <point x="760" y="0" type="line"/>
      <point x="863" y="489" type="line"/>
      <point x="1039" y="1095" type="line"/>
      <point x="1039" y="1295" type="line"/>
      <point x="373" y="1295" type="line"/>
      <point x="373" y="1556" type="line"/>
      <point x="71" y="1556" type="line"/>
      <point x="71" y="1057" type="line"/>
      <point x="732" y="1057" type="line"/>
      <point x="567" y="495" type="line"/>
    </contour>
    <contour>
      <point x="558" y="0" type="move" name="bottom"/>
    </contour>
    <contour>
      <point x="42" y="0" type="move" name="bottomleft"/>
    </contour>
    <contour>
      <point x="332" y="671" type="move" name="center"/>
    </contour>
    <contour>
      <point x="558" y="1119" type="move" name="top"/>
    </contour>
    <contour>
      <point x="42" y="1119" type="move" name="topleft"/>
    </contour>
  </outline>
</glyph>
<glyph name="Germandbls" format="1">
  <advance width="1627"/>
  <unicode hex="1E9E"/>
  <outline>
    <contour>
      <point x="1033" y="-20" type="curve" smooth="yes"/>
      <point x="1379" y="-20"/>
      <point x="1565" y="108"/>
      <point x="1565" y="403" type="curve" smooth="yes"/>
      <point x="1565" y="510"/>
      <point x="1531" y="588"/>
      <point x="1482" y="647" type="curve" smooth="yes"/>
      <point x="1419" y="721"/>
      <point x="1324" y="769"/>
      <point x="1188" y="816" type="curve" smooth="yes"/>
      <point x="1051" y="863"/>
      <point x="936" y="913"/>
      <point x="936" y="1010" type="curve" smooth="yes"/>
      <point x="936" y="1090"/>
      <point x="1015" y="1144"/>
      <point x="1130" y="1153" type="curve"/>
      <point x="1218" y="1343" type="line"/>
      <point x="1136" y="1428"/>
      <point x="973" y="1487"/>
      <point x="744" y="1487" type="curve" smooth="yes"/>
      <point x="342" y="1487"/>
      <point x="184" y="1405"/>
      <point x="184" y="1129" type="curve" smooth="yes"/>
      <point x="184" y="0" type="line"/>
      <point x="487" y="0" type="line"/>
      <point x="487" y="1103" type="line" smooth="yes"/>
      <point x="487" y="1217"/>
      <point x="580" y="1251"/>
      <point x="730" y="1251" type="curve" smooth="yes"/>
      <point x="747" y="1251"/>
      <point x="780" y="1249"/>
      <point x="792" y="1245" type="curve"/>
      <point x="688" y="1199"/>
      <point x="629" y="1083"/>
      <point x="629" y="962" type="curve" smooth="yes"/>
      <point x="629" y="771"/>
      <point x="806" y="697"/>
      <point x="991" y="629" type="curve" smooth="yes"/>
      <point x="1075" y="597"/>
      <point x="1142" y="568"/>
      <point x="1188" y="531" type="curve" smooth="yes"/>
      <point x="1233" y="495"/>
      <point x="1256" y="454"/>
      <point x="1256" y="399" type="curve" smooth="yes"/>
      <point x="1256" y="314"/>
      <point x="1219" y="233"/>
      <point x="1048" y="233" type="curve" smooth="yes"/>
      <point x="927" y="233"/>
      <point x="755" y="270"/>
      <point x="617" y="339" type="curve"/>
      <point x="617" y="62" type="line"/>
      <point x="744" y="2"/>
      <point x="886" y="-20"/>
    </contour>
  </outline>
</glyph>
<glyph name="dasiaoxia" format="1">
  <advance width="911"/>
  <unicode hex="1FDE"/>
  <outline>
    <contour>
      <point x="450" y="1138" type="line"/>
      <point x="588" y="1138" type="line"/>
      <point x="678" y="1251"/>
      <point x="749" y="1362"/>
      <point x="786" y="1445" type="curve"/>
      <point x="786" y="1465" type="line"/>
      <point x="537" y="1465" type="line"/>
      <point x="518" y="1374"/>
      <point x="489" y="1273"/>
      <point x="450" y="1161" type="curve"/>
    </contour>
    <contour>
      <point x="257" y="1121" type="curve" smooth="yes"/>
      <point x="337" y="1121"/>
      <point x="384" y="1156"/>
      <point x="384" y="1209" type="curve" smooth="yes"/>
      <point x="384" y="1249"/>
      <point x="361" y="1269"/>
      <point x="321" y="1278" type="curve" smooth="yes"/>
      <point x="290" y="1284"/>
      <point x="270" y="1290"/>
      <point x="270" y="1317" type="curve" smooth="yes"/>
      <point x="270" y="1335"/>
      <point x="280" y="1349"/>
      <point x="300" y="1360" type="curve"/>
      <point x="321" y="1372"/>
      <point x="358" y="1382"/>
      <point x="410" y="1389" type="curve"/>
      <point x="410" y="1478" type="line"/>
      <point x="218" y="1458"/>
      <point x="121" y="1391"/>
      <point x="121" y="1268" type="curve" smooth="yes"/>
      <point x="121" y="1178"/>
      <point x="175" y="1121"/>
    </contour>
    <contour>
      <point x="454" y="1126" type="move" name="_top"/>
    </contour>
    <contour>
      <point x="804" y="1462" type="move" name="_topleft"/>
    </contour>
    <contour>
      <point x="454" y="1480" type="move" name="top"/>
    </contour>
  </outline>
</glyph>
<glyph name="peseta" format="1">
  <advance width="1827"/>
  <unicode hex="20A7"/>
  <note>
    peseta
  </note>
  <outline>
    <contour>
      <point x="184" y="0" type="line"/>
      <point x="472" y="0" type="line"/>
      <point x="472" y="518" type="line"/>
      <point x="517" y="518" type="line" smooth="yes"/>
      <point x="894" y="518"/>
      <point x="1098" y="684"/>
      <point x="1098" y="1003" type="curve" smooth="yes"/>
      <point x="1098" y="1305"/>
      <point x="905" y="1462"/>
      <point x="537" y="1462" type="curve" smooth="yes"/>
      <point x="184" y="1462" type="line"/>
    </contour>
    <contour>
      <point x="472" y="762" type="line"/>
      <point x="472" y="1217" type="line"/>
      <point x="537" y="1217" type="line" smooth="yes"/>
      <point x="716" y="1217"/>
      <point x="801" y="1145"/>
      <point x="801" y="994" type="curve" smooth="yes"/>
      <point x="801" y="838"/>
      <point x="708" y="762"/>
      <point x="521" y="762" type="curve" smooth="yes"/>
    </contour>
    <contour>
      <point x="1548" y="-20" type="curve" smooth="yes"/>
      <point x="1634" y="-20"/>
      <point x="1719" y="0"/>
      <point x="1779" y="29" type="curve"/>
      <point x="1779" y="234" type="line"/>
      <point x="1739" y="214"/>
      <point x="1678" y="199"/>
      <point x="1613" y="199" type="curve" smooth="yes"/>
      <point x="1536" y="199"/>
      <point x="1500" y="243"/>
      <point x="1500" y="331" type="curve" smooth="yes"/>
      <point x="1500" y="640" type="line"/>
      <point x="1770" y="640" type="line"/>
      <point x="1770" y="846" type="line"/>
      <point x="1500" y="846" type="line"/>
      <point x="1500" y="1087" type="line"/>
      <point x="1336" y="1087" type="line"/>
      <point x="1251" y="844" type="line"/>
      <point x="1082" y="745" type="line"/>
      <point x="1082" y="640" type="line"/>
      <point x="1226" y="640" type="line"/>
      <point x="1226" y="322" type="line" smooth="yes"/>
      <point x="1226" y="88"/>
      <point x="1320" y="-20"/>
    </contour>
  </outline>
</glyph>
<glyph name="leftharpoonabovecomb" format="1">
  <advance width="0"/>
  <unicode hex="20D0"/>
  <note>
    leftharpoonabovecomb
  </note>
  <outline>
    <contour>
      <point x="-403" y="1245" type="line"/>
      <point x="362" y="1245" type="line"/>
      <point x="362" y="1368" type="line"/>
      <point x="-109" y="1368" type="line"/>
      <point x="-109" y="1495" type="line"/>
    </contour>
  </outline>
</glyph>
<glyph name="shortverticallineoverlaycomb" format="1">
  <advance width="0"/>
  <unicode hex="20D3"/>
  <note>
    shortverticallineoverlaycomb
  </note>
  <outline>
    <contour>
      <point x="-82" y="-98" type="line"/>
      <point x="82" y="-98" type="line"/>
      <point x="82" y="1196" type="line"/>
      <point x="-82" y="1196" type="line"/>
    </contour>
  </outline>
</glyph>
<glyph name="literSign" format="1">
  <advance width="1065"/>
  <unicode hex="2113"/>
  <note>
    afii61289
  </note>
  <outline>
    <contour>
      <point x="592" y="-17" type="curve" smooth="yes"/>
      <point x="865" y="-17"/>
      <point x="998" y="110"/>
      <point x="1000" y="394" type="curve"/>
      <point x="767" y="394" type="line"/>
      <point x="762" y="263"/>
      <point x="726" y="190"/>
      <point x="643" y="190" type="curve" smooth="yes"/>
      <point x="555" y="190"/>
      <point x="519" y="242"/>
      <point x="519" y="377" type="curve" smooth="yes"/>
      <point x="519" y="595" type="line"/>
      <point x="820" y="697"/>
      <point x="973" y="875"/>
      <point x="973" y="1121" type="curve" smooth="yes"/>
      <point x="973" y="1351"/>
      <point x="842" y="1480"/>
      <point x="610" y="1480" type="curve" smooth="yes"/>
      <point x="359" y="1480"/>
      <point x="224" y="1351"/>
      <point x="224" y="1100" type="curve" smooth="yes"/>
      <point x="224" y="718" type="line"/>
      <point x="164" y="699"/>
      <point x="104" y="682"/>
      <point x="41" y="665" type="curve"/>
      <point x="41" y="462" type="line"/>
      <point x="101" y="477"/>
      <point x="162" y="494"/>
      <point x="224" y="514" type="curve"/>
      <point x="224" y="387" type="line" smooth="yes"/>
      <point x="224" y="130"/>
      <point x="357" y="-17"/>
    </contour>
    <contour>
      <point x="519" y="808" type="curve"/>
      <point x="519" y="1143" type="line" smooth="yes"/>
      <point x="519" y="1245"/>
      <point x="545" y="1287"/>
      <point x="610" y="1287" type="curve" smooth="yes"/>
      <point x="673" y="1287"/>
      <point x="703" y="1234"/>
      <point x="703" y="1128" type="curve" smooth="yes"/>
      <point x="703" y="974"/>
      <point x="644" y="869"/>
    </contour>
  </outline>
</glyph>
<glyph name="numero" format="1">
  <advance width="2105"/>
  <unicode hex="2116"/>
  <note>
    afii61352
  </note>
  <outline>
    <contour>
      <point x="135" y="0" type="line"/>
      <point x="412" y="0" type="line"/>
      <point x="412" y="614" type="line" smooth="yes"/>
      <point x="412" y="701"/>
      <point x="406" y="837"/>
      <point x="395" y="1021" type="curve"/>
      <point x="410" y="1021" type="line"/>
      <point x="905" y="0" type="line"/>
      <point x="1249" y="0" type="line"/>
      <point x="1249" y="1462" type="line"/>
      <point x="972" y="1462" type="line"/>
      <point x="972" y="845" type="line" smooth="yes"/>
      <point x="972" y="736"/>
      <point x="977" y="606"/>
      <point x="987" y="453" type="curve"/>
      <point x="967" y="453" type="line"/>
      <point x="477" y="1462" type="line"/>
      <point x="135" y="1462" type="line"/>
    </contour>
    <contour>
      <point x="1407" y="0" type="line"/>
      <point x="2050" y="0" type="line"/>
      <point x="2050" y="180" type="line"/>
      <point x="1407" y="180" type="line"/>
    </contour>
    <contour>
      <point x="1726" y="296" type="curve" smooth="yes"/>
      <point x="1940" y="296"/>
      <point x="2072" y="431"/>
      <point x="2072" y="660" type="curve" smooth="yes"/>
      <point x="2072" y="880"/>
      <point x="1937" y="1024"/>
      <point x="1730" y="1024" type="curve" smooth="yes"/>
      <point x="1513" y="1024"/>
      <point x="1383" y="886"/>
      <point x="1383" y="660" type="curve" smooth="yes"/>
      <point x="1383" y="435"/>
      <point x="1518" y="296"/>
    </contour>
    <contour>
      <point x="1728" y="466" type="curve" smooth="yes"/>
      <point x="1640" y="466"/>
      <point x="1599" y="527"/>
      <point x="1599" y="658" type="curve" smooth="yes"/>
      <point x="1599" y="789"/>
      <point x="1639" y="854"/>
      <point x="1728" y="854" type="curve" smooth="yes"/>
      <point x="1814" y="854"/>
      <point x="1855" y="788"/>
      <point x="1855" y="658" type="curve" smooth="yes"/>
      <point x="1855" y="528"/>
      <point x="1813" y="466"/>
    </contour>
  </outline>
</glyph>
<glyph name="radical" format="1">
  <advance width="1124"/>
  <unicode hex="221A"/>
  <note>
    radical
  </note>
  <outline>
    <contour>
      <point x="481" y="-14" type="line"/>
      <point x="664" y="-14" type="line"/>
      <point x="1267" y="1729" type="line"/>
      <point x="1050" y="1729" type="line"/>
      <point x="566" y="341" type="line"/>
      <point x="355" y="931" type="line"/>
      <point x="37" y="931" type="line"/>
      <point x="37" y="721" type="line"/>
      <point x="213" y="721" type="line"/>
    </contour>
  </outline>
</glyph>
<glyph name="rightwigglyfence" format="1">
  <advance width="707"/>
  <unicode hex="29D9"/>
  <note>
    rightwigglyfence
  </note>
  <outline>
    <contour>
      <point x="403" y="-219" type="line"/>
      <point x="602" y="-219" type="line"/>
      <point x="303" y="6" type="line"/>
      <point x="602" y="229" type="line"/>
      <point x="303" y="442" type="line"/>
      <point x="602" y="676" type="line"/>
      <point x="303" y="899" type="line"/>
      <point x="602" y="1122" type="line"/>
      <point x="303" y="1331" type="line"/>
      <point x="602" y="1569" type="line"/>
      <point x="403" y="1569" type="line"/>
      <point x="104" y="1331" type="line"/>
      <point x="403" y="1122" type="line"/>
      <point x="104" y="899" type="line"/>
      <point x="403" y="676" type="line"/>
      <point x="104" y="442" type="line"/>
      <point x="403" y="229" type="line"/>
      <point x="104" y="6" type="line"/>
    </contour>
  </outline>
</glyph>
<glyph name="tripleVerticalBarBinaryRelation" format="1">
  <advance width="1120"/>
  <unicode hex="2AF4"/>
  <note>
    tripleVerticalBarBinaryRelation
  </note>
  <outline>
    <contour>
      <point x="870" y="-246" type="line"/>
      <point x="1016" y="-246" type="line"/>
      <point x="1016" y="1556" type="line"/>
      <point x="870" y="1556" type="line"/>
    </contour>
    <contour>
      <point x="104" y="-246" type="line"/>
      <point x="250" y="-246" type="line"/>
      <point x="250" y="1556" type="line"/>
      <point x="104" y="1556" type="line"/>
    </contour>
    <contour>
      <point x="487" y="-246" type="line"/>
      <point x="633" y="-246" type="line"/>
      <point x="633" y="1556" type="line"/>
      <point x="487" y="1556" type="line"/>
    </contour>
  </outline>
</glyph>
<glyph name="Ibold-math" format="1">
  <advance width="795"/>
  <unicode hex="1D408"/>
  <note>
    Ibold-math
  </note>
  <outline>
    <contour>
      <point x="41" y="0" type="line"/>
      <point x="750" y="0" type="line"/>
      <point x="750" y="53" type="line"/>
      <point x="590" y="70"/>
      <point x="557" y="106"/>
      <point x="557" y="236" type="curve" smooth="yes"/>
      <point x="557" y="1180" type="line" smooth="yes"/>
      <point x="557" y="1305"/>
      <point x="600" y="1331"/>
      <point x="745" y="1337" type="curve"/>
      <point x="745" y="1389" type="line"/>
      <point x="41" y="1389" type="line"/>
      <point x="41" y="1337" type="line"/>
      <point x="193" y="1331"/>
      <point x="229" y="1305"/>
      <point x="229" y="1180" type="curve" smooth="yes"/>
      <point x="229" y="229" type="line" smooth="yes"/>
      <point x="229" y="100"/>
      <point x="178" y="66"/>
      <point x="41" y="53" type="curve"/>
    </contour>
  </outline>
</glyph>
<glyph name="brevecomb-cy" format="1">
  <advance width="1182"/>
  <note>
    g566
  </note>
  <outline>
    <contour>
      <point x="542" y="1241" type="curve" smooth="yes"/>
      <point x="814" y="1241"/>
      <point x="961" y="1358"/>
      <point x="984" y="1592" type="curve"/>
      <point x="726" y="1592" type="line"/>
      <point x="715" y="1462"/>
      <point x="657" y="1402"/>
      <point x="543" y="1402" type="curve" smooth="yes"/>
      <point x="421" y="1402"/>
      <point x="369" y="1456"/>
      <point x="358" y="1592" type="curve"/>
      <point x="104" y="1592" type="line"/>
      <point x="122" y="1351"/>
      <point x="259" y="1241"/>
    </contour>
    <contour>
      <point x="544" y="1133" type="move" name="_top"/>
    </contour>
  </outline>
</glyph>
<glyph name="caron.alt" format="1">
  <advance width="344"/>
  <outline>
    <contour>
      <point x="0" y="1163.9" type="line"/>
      <point x="179" y="1163.9" type="line"/>
      <point x="216.4" y="1221.6"/>
      <point x="274.6" y="1331.7"/>
      <point x="347.8" y="1471.3" type="curve"/>
      <point x="347.8" y="1490.9" type="line"/>
      <point x="65.7" y="1490.9" type="line"/>
      <point x="54.9" y="1406.8"/>
      <point x="28.7" y="1292.4"/>
      <point x="0" y="1188.3" type="curve"/>
    </contour>
    <contour>
      <point x="347.8" y="1490.9" type="move" name="_topright"/>
    </contour>
  </outline>
</glyph>
<glyph name="cyrillicbighookUC" format="1">
  <advance width="598"/>
  <outline>
    <contour>
      <point x="203" y="-502" type="curve" smooth="yes"/>
      <point x="428" y="-502"/>
      <point x="559" y="-361"/>
      <point x="559" y="-128" type="curve" smooth="yes"/>
      <point x="559" y="263" type="line"/>
      <point x="197" y="263" type="line"/>
      <point x="197" y="0" type="line"/>
      <point x="259" y="0" type="line"/>
      <point x="259" y="-71" type="line" smooth="yes"/>
      <point x="259" y="-194"/>
      <point x="219" y="-257"/>
      <point x="130" y="-257" type="curve" smooth="yes"/>
      <point x="92" y="-257"/>
      <point x="54" y="-251"/>
      <point x="16" y="-238" type="curve"/>
      <point x="16" y="-479" type="line"/>
      <point x="63" y="-494"/>
      <point x="126" y="-502"/>
    </contour>
    <contour>
      <point x="305.83429" y="0" type="move" name="_cyrillicbighook"/>
    </contour>
  </outline>
</glyph>
<glyph name="cyrillichookleft" format="1">
  <advance width="422"/>
  <outline>
    <contour>
      <point x="161" y="-478" type="curve" smooth="yes"/>
      <point x="308" y="-478"/>
      <point x="411" y="-393"/>
      <point x="411" y="-260" type="curve" smooth="yes"/>
      <point x="411" y="-167"/>
      <point x="362" y="-85"/>
      <point x="244" y="0" type="curve"/>
      <point x="67" y="0" type="line"/>
      <point x="150" y="-77"/>
      <point x="204" y="-135"/>
      <point x="204" y="-214" type="curve" smooth="yes"/>
      <point x="204" y="-267"/>
      <point x="175" y="-294"/>
      <point x="118" y="-294" type="curve" smooth="yes"/>
      <point x="82" y="-294"/>
      <point x="36" y="-285"/>
      <point x="10" y="-275" type="curve"/>
      <point x="10" y="-455" type="line"/>
      <point x="57" y="-470"/>
      <point x="107" y="-478"/>
    </contour>
    <contour>
      <point x="191" y="3" type="move" name="_bottom"/>
    </contour>
  </outline>
</glyph>
<glyph name="g893" format="1">
  <advance width="0"/>
  <note>
    g893
  </note>
  <outline>
    <contour>
      <point x="-604" y="1241" type="curve" smooth="yes"/>
      <point x="-377" y="1241"/>
      <point x="-253" y="1349"/>
      <point x="-243" y="1553" type="curve"/>
      <point x="-390" y="1553" type="line"/>
      <point x="-402" y="1452"/>
      <point x="-483" y="1395"/>
      <point x="-606" y="1395" type="curve" smooth="yes"/>
      <point x="-733" y="1395"/>
      <point x="-804" y="1450"/>
      <point x="-821" y="1553" type="curve"/>
      <point x="-975" y="1553" type="line"/>
      <point x="-960" y="1359"/>
      <point x="-820" y="1241"/>
    </contour>
    <contour>
      <point x="-681" y="1487" type="line"/>
      <point x="-575" y="1487" type="line"/>
      <point x="-569" y="1530" type="line"/>
      <point x="-494" y="1546"/>
      <point x="-456" y="1589"/>
      <point x="-456" y="1660" type="curve" smooth="yes"/>
      <point x="-456" y="1749"/>
      <point x="-521" y="1801"/>
      <point x="-637" y="1801" type="curve" smooth="yes"/>
      <point x="-679" y="1801"/>
      <point x="-713" y="1797"/>
      <point x="-739" y="1790" type="curve"/>
      <point x="-739" y="1675" type="line"/>
      <point x="-709" y="1682"/>
      <point x="-682" y="1685"/>
      <point x="-658" y="1685" type="curve" smooth="yes"/>
      <point x="-614" y="1685"/>
      <point x="-592" y="1669"/>
      <point x="-592" y="1638" type="curve" smooth="yes"/>
      <point x="-592" y="1602"/>
      <point x="-632" y="1586"/>
      <point x="-689" y="1581" type="curve"/>
    </contour>
    <contour>
      <point x="-604" y="1126" type="move" name="_top"/>
    </contour>
  </outline>
</glyph>
